<svg width="30" height="30" viewBox="0 0 30 30" fill="none" xmlns="http://www.w3.org/2000/svg">
<path d="M22.3189 11.6602L24.8074 7.34943C24.8741 7.23371 24.8924 7.0963 24.8581 6.9672C24.8239 6.8381 24.7399 6.72779 24.6246 6.66036C24.5677 6.62693 24.5046 6.60513 24.4392 6.59623C24.3737 6.58733 24.3072 6.5915 24.2434 6.6085C24.1796 6.62551 24.1197 6.655 24.0674 6.69529C24.0151 6.73557 23.9712 6.78584 23.9385 6.84318L21.4189 11.2096C19.4953 10.3307 17.3303 9.84142 15.0018 9.84142C12.6732 9.84142 10.5082 10.3313 8.58457 11.2096L6.06504 6.84318C5.99791 6.72756 5.88759 6.64334 5.75837 6.60906C5.62915 6.57478 5.49159 6.59323 5.37598 6.66036C5.26036 6.7275 5.17614 6.83781 5.14186 6.96703C5.10758 7.09626 5.12603 7.23381 5.19316 7.34943L7.67578 11.6602C3.38672 13.9828 0.479883 18.3264 0 23.4111H30C29.5201 18.3264 26.6133 13.9828 22.3189 11.6602ZM8.1123 19.1983C7.86361 19.1983 7.6205 19.1245 7.41372 18.9863C7.20694 18.8482 7.04577 18.6518 6.9506 18.422C6.85543 18.1923 6.83053 17.9394 6.87904 17.6955C6.92756 17.4516 7.04732 17.2276 7.22317 17.0517C7.39903 16.8758 7.62308 16.7561 7.86699 16.7076C8.11091 16.6591 8.36374 16.684 8.5935 16.7791C8.82326 16.8743 9.01965 17.0355 9.15781 17.2422C9.29598 17.449 9.36973 17.6921 9.36973 17.9408C9.36957 18.2743 9.23704 18.594 9.00126 18.8298C8.76549 19.0656 8.44575 19.1981 8.1123 19.1983ZM21.8818 19.1983C21.6334 19.1972 21.3908 19.1226 21.1847 18.9838C20.9786 18.845 20.8183 18.6482 20.7239 18.4184C20.6295 18.1885 20.6054 17.9359 20.6545 17.6923C20.7036 17.4487 20.8238 17.2252 20.9998 17.0499C21.1759 16.8745 21.4 16.7553 21.6437 16.7072C21.8875 16.6591 22.1401 16.6843 22.3695 16.7796C22.599 16.875 22.795 17.0361 22.933 17.2428C23.0709 17.4495 23.1445 17.6924 23.1445 17.9408C23.1445 18.1062 23.1118 18.2699 23.0484 18.4226C22.985 18.5753 22.8921 18.714 22.775 18.8308C22.658 18.9476 22.519 19.0402 22.3662 19.1032C22.2133 19.1663 22.0495 19.1986 21.8842 19.1983H21.8818Z" fill="#4F7AF7"/>
</svg>
