<svg width="262" height="41" viewBox="0 0 262 41" fill="none" xmlns="http://www.w3.org/2000/svg">
<g clip-path="url(#clip0_3128_2111)">
<g clip-path="url(#clip1_3128_2111)">
<g clip-path="url(#clip2_3128_2111)">
<path d="M48.6252 28.6334V7.39537H51.5607V16.6665L51.0468 17.0099C51.2368 16.3402 51.6081 15.7235 52.161 15.1597C52.7104 14.596 53.365 14.1365 54.1247 13.7811C54.8844 13.4292 55.6628 13.2532 56.4598 13.2532C57.5994 13.2532 58.549 13.477 59.3087 13.9246C60.0685 14.3756 60.6382 15.0607 61.0181 15.9797C61.398 16.8988 61.5879 18.0554 61.5879 19.4494V28.6334H58.6576V19.6544C58.6576 18.7934 58.5422 18.0793 58.3116 17.5121C58.0844 16.9484 57.7333 16.5384 57.2585 16.2821C56.7837 16.0225 56.1953 15.9114 55.4932 15.949C54.9234 15.949 54.4011 16.0395 53.9263 16.2206C53.4515 16.4051 53.0377 16.6597 52.685 16.9842C52.3356 17.3088 52.0609 17.6864 51.8608 18.1169C51.6607 18.5474 51.5607 19.012 51.5607 19.5109V28.6334H49.368H48.6252ZM71.7016 28.9152C70.1652 28.9152 68.8035 28.5855 67.6164 27.9261C66.4294 27.2667 65.4984 26.363 64.8235 25.215C64.1485 24.067 63.8111 22.7465 63.8111 21.2534C63.8111 20.0678 64.001 18.9864 64.3809 18.0092C64.7607 17.0355 65.2881 16.1899 65.963 15.4724C66.638 14.7549 67.4451 14.1997 68.3846 13.8067C69.3241 13.4138 70.345 13.2174 71.4472 13.2174C72.4172 13.2174 73.3194 13.4036 74.1537 13.776C74.988 14.1518 75.7138 14.6643 76.3311 15.3135C76.9484 15.9627 77.4232 16.7331 77.7556 17.6249C78.0879 18.5132 78.2457 19.4835 78.2287 20.5359L78.1982 21.8017H65.9783L65.322 19.4442H75.6647L75.2373 19.9362V19.2444C75.1797 18.6123 74.9711 18.0485 74.6116 17.5531C74.2487 17.0543 73.7925 16.6614 73.2431 16.3744C72.6902 16.0874 72.0916 15.9439 71.4472 15.9439C70.423 15.9439 69.5581 16.1403 68.8527 16.5332C68.1506 16.9262 67.6198 17.5002 67.2603 18.2552C66.8974 19.0103 66.716 19.9431 66.716 21.0535C66.716 22.1058 66.9347 23.0198 67.3722 23.7954C67.8097 24.571 68.427 25.1689 69.224 25.5891C70.0211 26.0094 70.9419 26.2195 71.9865 26.2195C72.7292 26.2195 73.4177 26.0948 74.052 25.8454C74.6896 25.596 75.3781 25.1467 76.1174 24.4975L77.6029 26.5936C77.1451 27.0515 76.5889 27.4529 75.9343 27.798C75.2797 28.1431 74.5861 28.4164 73.8535 28.618C73.1244 28.8162 72.407 28.9152 71.7016 28.9152ZM92.0715 28.6282H89.426V18.8139C89.426 17.9734 89.1259 17.29 88.5255 16.7639C87.9286 16.2377 87.174 15.9746 86.2617 15.9746C85.4273 15.9746 84.6727 16.1472 83.9978 16.4922C83.3229 16.8339 82.7107 17.3601 82.1612 18.0707L80.2484 16.1437C81.1438 15.17 82.1087 14.444 83.1431 13.9656C84.1775 13.4873 85.2934 13.2481 86.4906 13.2481C87.6302 13.2481 88.6171 13.4395 89.4515 13.8221C90.2892 14.2048 90.9353 14.7634 91.3897 15.498C91.8442 16.236 92.0715 17.1312 92.0715 18.1835V28.6282ZM84.9491 28.9152C83.9825 28.9152 83.1194 28.7239 82.3596 28.3412C81.5999 27.9586 80.9962 27.429 80.5485 26.7525C80.1042 26.0726 79.8821 25.2731 79.8821 24.354C79.8821 23.5511 80.0245 22.8438 80.3094 22.2322C80.5943 21.6172 81.0166 21.1099 81.5762 20.7101C82.1358 20.307 82.8379 20.0012 83.6824 19.7927C84.5269 19.5809 85.5003 19.475 86.6025 19.475H90.764L90.5045 21.8274H86.2311C85.6614 21.8274 85.1543 21.8803 84.71 21.9862C84.2623 22.0922 83.8825 22.2545 83.5704 22.4731C83.255 22.6952 83.0227 22.9532 82.8735 23.247C82.7208 23.5442 82.6445 23.8945 82.6445 24.2976C82.6445 24.7179 82.748 25.0852 82.9549 25.3995C83.1651 25.7172 83.45 25.9615 83.8096 26.1324C84.1725 26.3066 84.5913 26.3937 85.0661 26.3937C85.7478 26.3937 86.3973 26.2742 87.0146 26.035C87.6319 25.7958 88.183 25.4644 88.668 25.0407C89.153 24.6205 89.5278 24.1524 89.7923 23.6365L90.4791 25.5584C90.0789 26.228 89.5854 26.8123 88.9987 27.3111C88.4085 27.8065 87.7709 28.1977 87.0858 28.4847C86.4041 28.7717 85.6919 28.9152 84.9491 28.9152ZM101.931 28.6334H99.8246L93.4959 13.5659H96.6603L101.219 24.846L100.679 25.1074L105.548 13.5659H108.57L101.931 28.6334ZM117.371 28.9152C115.835 28.9152 114.473 28.5855 113.286 27.9261C112.099 27.2667 111.168 26.363 110.493 25.215C109.818 24.067 109.48 22.7465 109.48 21.2534C109.48 20.0678 109.67 18.9864 110.05 18.0092C110.43 17.0355 110.957 16.1899 111.632 15.4724C112.307 14.7549 113.115 14.1997 114.054 13.8067C114.993 13.4138 116.014 13.2174 117.117 13.2174C118.083 13.2174 118.985 13.4036 119.823 13.776C120.657 14.1518 121.383 14.6643 122 15.3135C122.618 15.9627 123.093 16.7331 123.425 17.6249C123.757 18.5132 123.915 19.4835 123.898 20.5359L123.868 21.8017H111.648L110.991 19.4442H121.334L120.907 19.9362V19.2444C120.849 18.6123 120.639 18.0485 120.276 17.5531C119.916 17.0543 119.462 16.6614 118.912 16.3744C118.36 16.0874 117.761 15.9439 117.117 15.9439C116.089 15.9439 115.224 16.1403 114.522 16.5332C113.82 16.9262 113.289 17.5002 112.93 18.2552C112.567 19.0103 112.385 19.9431 112.385 21.0535C112.385 22.1058 112.604 23.0198 113.042 23.7954C113.479 24.571 114.096 25.1689 114.893 25.5891C115.69 26.0094 116.611 26.2195 117.656 26.2195C118.399 26.2195 119.087 26.0948 119.721 25.8454C120.359 25.596 121.047 25.1467 121.787 24.4975L123.267 26.5936C122.813 27.0515 122.258 27.4529 121.604 27.798C120.949 28.1431 120.256 28.4164 119.523 28.618C118.79 28.8162 118.073 28.9152 117.371 28.9152ZM126.233 28.6282V13.5607H129.169V16.6614L128.655 17.0047C128.845 16.3351 129.214 15.7184 129.764 15.1546C130.317 14.5909 130.973 14.1313 131.733 13.776C132.492 13.4241 133.271 13.2481 134.068 13.2481C135.207 13.2481 136.157 13.4719 136.917 13.9195C137.676 14.3705 138.246 15.0555 138.626 15.9746C139.006 16.8937 139.196 18.0502 139.196 19.4442V28.6282H136.26V19.6492C136.26 18.7882 136.147 18.0742 135.92 17.507C135.692 16.9432 135.341 16.5332 134.866 16.277C134.392 16.0173 133.802 15.9063 133.096 15.9439C132.526 15.9439 132.004 16.0344 131.529 16.2155C131.054 16.4 130.642 16.6545 130.293 16.9791C129.94 17.3037 129.664 17.6812 129.464 18.1117C129.267 18.5422 129.169 19.0069 129.169 19.5057V28.6282H126.971H126.233ZM149.025 35.2292C147.96 35.2292 146.9 35.0618 145.845 34.727C144.794 34.3922 143.944 33.9582 143.296 33.4252L144.38 31.1292C144.95 31.5666 145.657 31.9202 146.501 32.1901C147.346 32.4566 148.187 32.5899 149.025 32.5899C150.069 32.5899 150.943 32.4173 151.645 32.0722C152.347 31.7306 152.879 31.2249 153.242 30.5552C153.602 29.8856 153.781 29.0519 153.781 28.0542V25.1586L154.097 25.3585C154.002 25.953 153.693 26.5219 153.171 27.0651C152.649 27.6118 151.997 28.0577 151.217 28.4027C150.437 28.7444 149.64 28.9152 148.826 28.9152C147.402 28.9152 146.133 28.577 145.021 27.9005C143.908 27.2206 143.03 26.2912 142.386 25.1125C141.741 23.9372 141.419 22.5944 141.419 21.0842C141.419 19.5707 141.736 18.2262 142.37 17.0509C143.008 15.8721 143.881 14.9445 144.99 14.268C146.103 13.5881 147.353 13.2481 148.74 13.2481C149.31 13.2481 149.861 13.3199 150.393 13.4634C150.922 13.6069 151.416 13.8067 151.874 14.063C152.328 14.3227 152.737 14.6062 153.1 14.9137C153.459 15.2178 153.753 15.5424 153.98 15.8875C154.207 16.2326 154.349 16.5572 154.407 16.8612L153.781 17.0919V13.5607H156.717V27.7109C156.717 28.917 156.54 29.9847 156.188 30.914C155.838 31.8399 155.331 32.624 154.667 33.2664C154.002 33.9053 153.195 34.3922 152.245 34.727C151.295 35.0618 150.222 35.2292 149.025 35.2292ZM149.137 26.1887C150.069 26.1887 150.895 25.9701 151.614 25.5327C152.337 25.092 152.898 24.489 153.298 23.7236C153.695 22.9583 153.893 22.0785 153.893 21.0842C153.893 20.0866 153.69 19.2017 153.283 18.4295C152.876 17.6539 152.316 17.0457 151.604 16.605C150.892 16.1642 150.069 15.9439 149.137 15.9439C148.224 15.9439 147.412 16.1694 146.7 16.6204C145.987 17.068 145.428 17.6795 145.021 18.4551C144.614 19.2307 144.41 20.1071 144.41 21.0842C144.41 22.058 144.614 22.9327 145.021 23.7082C145.428 24.4838 145.987 25.092 146.7 25.5327C147.412 25.9701 148.224 26.1887 149.137 26.1887ZM171.475 28.6282H168.825V18.8139C168.825 17.9734 168.525 17.29 167.924 16.7639C167.327 16.2377 166.573 15.9746 165.66 15.9746C164.826 15.9746 164.071 16.1472 163.396 16.4922C162.722 16.8339 162.109 17.3601 161.56 18.0707L159.652 16.1437C160.544 15.17 161.507 14.444 162.542 13.9656C163.576 13.4873 164.692 13.2481 165.889 13.2481C167.029 13.2481 168.016 13.4395 168.85 13.8221C169.688 14.2048 170.334 14.7634 170.788 15.498C171.246 16.236 171.475 17.1312 171.475 18.1835V28.6282ZM164.353 28.9152C163.383 28.9152 162.518 28.7239 161.758 28.3412C160.999 27.9586 160.395 27.429 159.947 26.7525C159.503 26.0726 159.281 25.2731 159.281 24.354C159.281 23.5511 159.423 22.8438 159.708 22.2322C159.993 21.6172 160.415 21.1099 160.975 20.7101C161.535 20.307 162.237 20.0012 163.081 19.7927C163.929 19.5809 164.902 19.475 166.001 19.475H170.163L169.908 21.8274H165.635C165.065 21.8274 164.556 21.8803 164.109 21.9862C163.661 22.0922 163.281 22.2545 162.969 22.4731C162.657 22.6952 162.425 22.9532 162.272 23.247C162.12 23.5442 162.043 23.8945 162.043 24.2976C162.043 24.7179 162.148 25.0852 162.359 25.3995C162.566 25.7172 162.85 25.9615 163.213 26.1324C163.573 26.3066 163.99 26.3937 164.465 26.3937C165.15 26.3937 165.801 26.2742 166.418 26.035C167.036 25.7958 167.585 25.4644 168.067 25.0407C168.552 24.6205 168.928 24.1524 169.196 23.6365L169.878 25.5584C169.478 26.228 168.984 26.8123 168.397 27.3111C167.807 27.8065 167.171 28.1977 166.49 28.4847C165.805 28.7717 165.092 28.9152 164.353 28.9152ZM179.106 28.6334H176.176V9.72212H179.106V28.6334ZM182.586 16.4359H173.068V13.5659H182.586V16.4359ZM191.382 28.9152C189.842 28.9152 188.479 28.5855 187.292 27.9261C186.105 27.2667 185.176 26.363 184.504 25.215C183.829 24.067 183.492 22.7465 183.492 21.2534C183.492 20.0678 183.682 18.9864 184.061 18.0092C184.441 17.0355 184.969 16.1899 185.644 15.4724C186.315 14.7549 187.122 14.1997 188.065 13.8067C189.005 13.4138 190.026 13.2174 191.128 13.2174C192.094 13.2174 192.997 13.4036 193.834 13.776C194.669 14.1518 195.394 14.6643 196.012 15.3135C196.629 15.9627 197.104 16.7331 197.436 17.6249C197.769 18.5132 197.925 19.4835 197.904 20.5359L197.879 21.8017H185.654L185.003 19.4442H195.34L194.913 19.9362V19.2444C194.859 18.6123 194.65 18.0485 194.287 17.5531C193.928 17.0543 193.471 16.6614 192.919 16.3744C192.369 16.0874 191.772 15.9439 191.128 15.9439C190.1 15.9439 189.235 16.1403 188.533 16.5332C187.831 16.9262 187.299 17.5002 186.936 18.2552C186.576 19.0103 186.397 19.9431 186.397 21.0535C186.397 22.1058 186.615 23.0198 187.053 23.7954C187.49 24.571 188.108 25.1689 188.905 25.5891C189.702 26.0094 190.622 26.2195 191.667 26.2195C192.406 26.2195 193.095 26.0948 193.733 25.8454C194.37 25.596 195.059 25.1467 195.798 24.4975L197.278 26.5936C196.824 27.0515 196.269 27.4529 195.615 27.798C194.957 28.1431 194.263 28.4164 193.534 28.618C192.802 28.8162 192.084 28.9152 191.382 28.9152ZM214.377 28.6334H212.271L205.947 13.5659H209.107L213.665 24.846L213.126 25.1074L217.994 13.5659H221.016L214.377 28.6334ZM225.803 34.9474H222.837V13.5659H225.803V17.0099L225.346 16.7536C225.461 16.1796 225.785 15.6295 226.317 15.1034C226.846 14.5772 227.496 14.1467 228.266 13.8119C229.036 13.477 229.829 13.3096 230.647 13.3096C231.993 13.3096 233.189 13.6445 234.233 14.3141C235.278 14.9838 236.105 15.9029 236.716 17.0714C237.323 18.2365 237.626 19.5758 237.626 21.0894C237.626 22.579 237.326 23.9132 236.726 25.092C236.129 26.2673 235.308 27.195 234.264 27.8749C233.219 28.5548 232.042 28.8947 230.733 28.8947C229.858 28.8947 229.012 28.7171 228.194 28.3617C227.377 28.0098 226.683 27.5554 226.114 26.9985C225.544 26.445 225.193 25.871 225.061 25.2765L225.803 24.8767V34.9474ZM230.245 26.1682C231.12 26.1682 231.9 25.9479 232.585 25.5071C233.267 25.0664 233.808 24.4633 234.208 23.698C234.605 22.9327 234.803 22.0631 234.803 21.0894C234.803 20.1122 234.61 19.2461 234.223 18.491C233.833 17.7359 233.295 17.138 232.61 16.6972C231.929 16.2565 231.14 16.0361 230.245 16.0361C229.353 16.0361 228.566 16.2514 227.884 16.6819C227.199 17.1124 226.656 17.7103 226.256 18.4756C225.859 19.241 225.661 20.1122 225.661 21.0894C225.661 22.0631 225.859 22.9327 226.256 23.698C226.656 24.4633 227.199 25.0664 227.884 25.5071C228.566 25.9479 229.353 26.1682 230.245 26.1682ZM239.962 28.6282V13.5607H242.897V16.6614L242.383 17.0047C242.573 16.3351 242.943 15.7184 243.492 15.1546C244.045 14.5909 244.701 14.1313 245.461 13.776C246.221 13.4241 246.999 13.2481 247.796 13.2481C248.936 13.2481 249.885 13.4719 250.645 13.9195C251.405 14.3705 251.975 15.0555 252.354 15.9746C252.734 16.8937 252.924 18.0502 252.924 19.4442V28.6282H249.989V19.6492C249.989 18.7882 249.875 18.0742 249.648 17.507C249.421 16.9432 249.07 16.5332 248.595 16.277C248.12 16.0173 247.532 15.9063 246.83 15.9439C246.26 15.9439 245.737 16.0344 245.263 16.2155C244.788 16.4 244.374 16.6545 244.021 16.9791C243.669 17.3037 243.394 17.6812 243.197 18.1117C242.997 18.5422 242.897 19.0069 242.897 19.5057V28.6282H240.704H239.962ZM21.7247 -16.258L16.1159 -22.4736C16.4244 -22.9484 16.5505 -23.5202 16.4705 -24.0819C16.3905 -24.6435 16.1098 -25.1566 15.6812 -25.5247C15.2526 -25.8929 14.7054 -26.0909 14.1422 -26.0817C13.579 -26.0725 13.0385 -25.8567 12.6219 -25.4748C12.2053 -25.0928 11.9414 -24.5709 11.8795 -24.0069C11.8176 -23.4429 11.962 -22.8755 12.2856 -22.4111C12.6093 -21.9467 13.0899 -21.6171 13.6375 -21.4842C14.1851 -21.3513 14.7621 -21.4241 15.2602 -21.689L20.869 -15.4765C21.1136 -15.7798 21.402 -16.0443 21.7247 -16.2611M20.023 -13.3424L12.1065 -12.7941C11.9285 -13.3314 11.562 -13.7849 11.0759 -14.0696C10.5897 -14.3542 10.0172 -14.4505 9.46556 -14.3404C8.91396 -14.2303 8.42114 -13.9214 8.07946 -13.4714C7.73779 -13.0215 7.5707 -12.4615 7.60952 -11.8964C7.64834 -11.3312 7.89039 -10.7998 8.29032 -10.4015C8.69025 -10.0033 9.22061 -9.76565 9.78202 -9.73312C10.3434 -9.70059 10.8973 -9.87542 11.3399 -10.2248C11.7826 -10.5742 12.0835 -11.0743 12.1864 -11.6312L20.1003 -12.177C20.017 -12.5584 19.9911 -12.9502 20.0235 -13.3394M19.8627 -5.6129C19.2123 -5.75475 18.5329 -5.64952 17.9548 -5.31744C17.3767 -4.98536 16.9408 -4.44984 16.7308 -3.81373C16.5207 -3.17761 16.5514 -2.48575 16.8169 -1.87103C17.0824 -1.2563 17.5639 -0.762052 18.1691 -0.483203C18.7742 -0.204353 19.4603 -0.160563 20.0956 -0.360245C20.7308 -0.559927 21.2705 -0.989 21.6108 -1.56506C21.9512 -2.14112 22.0683 -2.82354 21.9396 -3.48128C21.811 -4.13901 21.4456 -4.72567 20.9138 -5.12859L22.8048 -9.29675C22.4311 -9.40389 22.0755 -9.56716 21.7501 -9.78106L19.8627 -5.6129ZM31.2376 -17.6208C31.7931 -17.0876 32.5261 -16.7823 33.2932 -16.7645C34.0603 -16.7467 34.8064 -17.0177 35.3857 -17.5246C35.965 -18.0314 36.3359 -18.7377 36.4258 -19.5053C36.5158 -20.273 36.3183 -21.0468 35.8721 -21.6756C35.4259 -22.3044 34.7629 -22.743 34.0128 -22.9056C33.2627 -23.0683 32.4793 -22.9433 31.8158 -22.5551C31.1523 -22.1668 30.6563 -21.5433 30.4248 -20.8064C30.1933 -20.0694 30.243 -19.272 30.564 -18.5699L26.6218 -15.7317C26.8931 -15.4519 27.1175 -15.1365 27.2949 -14.7856L31.2376 -17.6208ZM33.3621 -7.61473C32.7714 -7.61563 32.1969 -7.42037 31.7275 -7.05918L27.1382 -10.9921C26.9351 -10.6588 26.6833 -10.3581 26.3914 -10.1004L30.9842 -6.17153C30.7074 -5.64651 30.6089 -5.04454 30.704 -4.4578C30.7991 -3.87106 31.0825 -3.33189 31.5108 -2.92287C31.939 -2.51384 32.4886 -2.2575 33.0753 -2.1931C33.6619 -2.1287 34.2534 -2.2598 34.7591 -2.56631C35.2647 -2.87283 35.6567 -3.33786 35.875 -3.8902C36.0933 -4.44254 36.1259 -5.05174 35.9678 -5.6245C35.8096 -6.19727 35.4695 -6.70203 34.9994 -7.06148C34.5293 -7.42094 33.9553 -7.61527 33.3651 -7.61473M25.6766 -19.8871C26.1614 -19.95 26.6042 -20.1965 26.915 -20.5765C27.2258 -20.9566 27.3813 -21.4416 27.3499 -21.9329C27.3184 -22.4243 27.1025 -22.8852 26.7458 -23.2219C26.3892 -23.5586 25.9186 -23.7459 25.4298 -23.7457C24.9987 -23.7482 24.5793 -23.6045 24.2391 -23.3377C23.899 -23.0709 23.6578 -22.6965 23.5545 -22.2749C23.4513 -21.8532 23.4919 -21.4088 23.6698 -21.0132C23.8478 -20.6176 24.1527 -20.2939 24.5355 -20.0941L23.9652 -16.9038C24.3647 -16.8908 24.7439 -16.822 25.1027 -16.6973L25.6766 -19.8871Z" fill="url(#paint0_linear_3128_2111)"/>
</g>
</g>
<path d="M14.2447 16.9976C14.2447 13.2411 14.2447 11.3628 14.9589 9.92296C15.6144 8.60137 16.678 7.52984 17.9899 6.86948C19.4192 6.15002 21.2837 6.15002 25.0127 6.15002H29.9311C33.66 6.15002 35.5245 6.15002 36.9538 6.86948C38.2657 7.52984 39.3294 8.60137 39.9849 9.92296C40.6991 11.3628 40.6991 13.2411 40.6991 16.9976V21.9524C40.6991 25.709 40.6991 27.5872 39.9849 29.0271C39.3294 30.3487 38.2657 31.4202 36.9538 32.0806C35.5245 32.8 33.66 32.8 29.9311 32.8H25.0127C21.2837 32.8 19.4192 32.8 17.9899 32.0806C16.678 31.4202 15.6144 30.3487 14.9589 29.0271C14.2447 27.5872 14.2447 25.709 14.2447 21.9524V16.9976Z" fill="url(#paint1_linear_3128_2111)"/>
<g filter="url(#filter0_di_3128_2111)">
<g clip-path="url(#clip3_3128_2111)">
<mask id="mask0_3128_2111" style="mask-type:luminance" maskUnits="userSpaceOnUse" x="19" y="12" width="16" height="15">
<path d="M34.5314 12.6171H19.0417V26.3329H34.5314V12.6171Z" fill="white"/>
</mask>
<g mask="url(#mask0_3128_2111)">
<mask id="mask1_3128_2111" style="mask-type:luminance" maskUnits="userSpaceOnUse" x="-117" y="12" width="402" height="34">
<path d="M284.237 12.6171H-116.36V45.1586H284.237V12.6171Z" fill="white"/>
</mask>
<g mask="url(#mask1_3128_2111)">
<path d="M40.8288 41.3586V30.2138H42.3698V35.0789L42.1 35.2591C42.1997 34.9077 42.3947 34.584 42.6849 34.2882C42.9733 33.9924 43.3169 33.7512 43.7158 33.5648C44.1146 33.3801 44.5232 33.2878 44.9416 33.2878C45.5398 33.2878 46.0384 33.4052 46.4371 33.6401C46.8359 33.8767 47.135 34.2362 47.3345 34.7185C47.534 35.2008 47.6336 35.8077 47.6336 36.5392V41.3586H46.0953V36.6468C46.0953 36.195 46.0347 35.8202 45.9137 35.5226C45.7943 35.2268 45.6101 35.0117 45.3609 34.8772C45.1116 34.7409 44.8027 34.6826 44.4342 34.7024C44.135 34.7024 43.8609 34.7499 43.6116 34.8449C43.3623 34.9417 43.1451 35.0753 42.96 35.2456C42.7766 35.416 42.6324 35.6141 42.5273 35.84C42.4223 36.0659 42.3698 36.3097 42.3698 36.5715V41.3586H41.2187H40.8288ZM52.9428 41.5065C52.1363 41.5065 51.4214 41.3335 50.7983 40.9874C50.1752 40.6413 49.6865 40.1672 49.3321 39.5647C48.9777 38.9624 48.8007 38.2694 48.8007 37.4859C48.8007 36.8637 48.9003 36.2963 49.0998 35.7835C49.2993 35.2725 49.576 34.8288 49.9303 34.4523C50.2847 34.0758 50.7083 33.7844 51.2016 33.5782C51.6948 33.372 52.2306 33.2689 52.8093 33.2689C53.3186 33.2689 53.7921 33.3666 54.2301 33.5621C54.6681 33.7593 55.0492 34.0282 55.3731 34.3689C55.6971 34.7095 55.9465 35.1139 56.1209 35.5818C56.2953 36.048 56.3781 36.5571 56.3693 37.1094L56.3532 37.7737H49.9384L49.5938 36.5365H55.0233L54.7989 36.7947V36.4317C54.7687 36.0999 54.6593 35.8041 54.4704 35.5442C54.28 35.2824 54.0405 35.0762 53.752 34.9256C53.4617 34.775 53.1477 34.6997 52.8093 34.6997C52.2717 34.6997 51.8177 34.8028 51.4473 35.009C51.0787 35.2151 50.8002 35.5163 50.6114 35.9126C50.4209 36.3088 50.3256 36.7983 50.3256 37.381C50.3256 37.9332 50.4404 38.4128 50.6701 38.8198C50.8998 39.2268 51.2237 39.5405 51.6422 39.7611C52.0607 39.9816 52.5441 40.0919 53.0924 40.0919C53.4823 40.0919 53.8436 40.0265 54.1767 39.8955C54.5113 39.7648 54.8729 39.529 55.2609 39.1883L56.0408 40.2882C55.8004 40.5286 55.5085 40.7392 55.1648 40.9202C54.8211 41.1012 54.4571 41.2448 54.0725 41.3505C53.6898 41.4546 53.3132 41.5065 52.9428 41.5065ZM63.6361 41.3559H62.2474V36.2057C62.2474 35.7647 62.0898 35.4061 61.7746 35.13C61.4614 34.8539 61.0651 34.7158 60.5862 34.7158C60.1482 34.7158 59.7522 34.8063 59.3978 34.9875C59.0434 35.1667 58.7221 35.4428 58.4337 35.8158L57.4295 34.8046C57.8995 34.2936 58.4062 33.9126 58.9491 33.6616C59.492 33.4106 60.078 33.2851 60.7064 33.2851C61.3046 33.2851 61.8227 33.3855 62.2607 33.5863C62.7006 33.7871 63.0397 34.0802 63.2782 34.4657C63.5167 34.853 63.6361 35.3227 63.6361 35.8749V41.3559ZM59.8972 41.5065C59.3898 41.5065 58.9366 41.4062 58.5378 41.2053C58.1391 41.0046 57.8221 40.7265 57.5871 40.3715C57.3539 40.0147 57.2372 39.5951 57.2372 39.113C57.2372 38.6916 57.312 38.3205 57.4616 37.9996C57.6111 37.6768 57.8328 37.4106 58.1266 37.2008C58.4203 36.9892 58.7889 36.8288 59.2322 36.7194C59.6755 36.6082 60.1864 36.5527 60.7651 36.5527H62.9497L62.8135 37.7871H60.5702C60.2711 37.7871 60.0048 37.8149 59.7717 37.8705C59.5366 37.926 59.3372 38.0112 59.1734 38.126C59.0079 38.2425 58.8858 38.3779 58.8076 38.5321C58.7274 38.688 58.6874 38.8718 58.6874 39.0834C58.6874 39.3039 58.7416 39.4966 58.8503 39.6615C58.9606 39.8283 59.1102 39.9566 59.299 40.0461C59.4894 40.1376 59.7094 40.1833 59.9586 40.1833C60.3165 40.1833 60.6575 40.1206 60.9815 39.995C61.3054 39.8697 61.5949 39.6957 61.8494 39.4733C62.1039 39.2528 62.3008 39.0072 62.4396 38.7365L62.8002 39.7449C62.59 40.0964 62.3309 40.403 62.023 40.6647C61.7132 40.9248 61.3786 41.13 61.0189 41.2806C60.661 41.4312 60.2871 41.5065 59.8972 41.5065ZM68.8118 41.3586H67.7062L64.3839 33.4518H66.045L68.4379 39.3712L68.1548 39.5083L70.7106 33.4518H72.297L68.8118 41.3586ZM76.9172 41.5065C76.1107 41.5065 75.3957 41.3335 74.7727 40.9874C74.1496 40.6413 73.6609 40.1672 73.3065 39.5647C72.9521 38.9624 72.775 38.2694 72.775 37.4859C72.775 36.8637 72.8746 36.2963 73.0741 35.7835C73.2736 35.2725 73.5503 34.8288 73.9047 34.4523C74.2591 34.0758 74.6827 33.7844 75.1759 33.5782C75.6692 33.372 76.2049 33.2689 76.7837 33.2689C77.2911 33.2689 77.7646 33.3666 78.2045 33.5621C78.6424 33.7593 79.0235 34.0282 79.3475 34.3689C79.6714 34.7095 79.9209 35.1139 80.0953 35.5818C80.2697 36.048 80.3524 36.5571 80.3436 37.1094L80.3276 37.7737H73.9127L73.5682 36.5365H78.9976L78.7733 36.7947V36.4317C78.7431 36.0999 78.6326 35.8041 78.4421 35.5442C78.2533 35.2824 78.0148 35.0762 77.7264 34.9256C77.4361 34.775 77.122 34.6997 76.7837 34.6997C76.2442 34.6997 75.7902 34.8028 75.4216 35.009C75.0531 35.2151 74.7745 35.5163 74.5857 35.9126C74.3953 36.3088 74.3 36.7983 74.3 37.381C74.3 37.9332 74.4148 38.4128 74.6445 38.8198C74.8742 39.2268 75.1981 39.5405 75.6166 39.7611C76.0351 39.9816 76.5185 40.0919 77.0668 40.0919C77.4567 40.0919 77.818 40.0265 78.151 39.8955C78.4857 39.7648 78.8473 39.529 79.2353 39.1883L80.0125 40.2882C79.774 40.5286 79.4829 40.7392 79.1392 40.9202C78.7955 41.1012 78.4315 41.2448 78.0469 41.3505C77.6623 41.4546 77.2858 41.5065 76.9172 41.5065ZM81.5695 41.3559V33.4491H83.1104V35.0762L82.8407 35.2564C82.9403 34.905 83.1345 34.5814 83.4229 34.2855C83.7132 33.9897 84.0577 33.7485 84.4564 33.5621C84.8552 33.3774 85.2638 33.2851 85.6823 33.2851C86.2805 33.2851 86.7791 33.4025 87.1778 33.6374C87.5765 33.874 87.8757 34.2335 88.0751 34.7158C88.2746 35.1981 88.3743 35.805 88.3743 36.5365V41.3559H86.8333V36.6441C86.8333 36.1923 86.7737 35.8176 86.6544 35.52C86.535 35.2241 86.3507 35.009 86.1015 34.8745C85.8524 34.7382 85.5426 34.6799 85.1722 34.6997C84.873 34.6997 84.5988 34.7472 84.3496 34.8422C84.1004 34.939 83.8841 35.0726 83.7006 35.2429C83.5156 35.4133 83.3703 35.6114 83.2653 35.8373C83.162 36.0632 83.1104 36.307 83.1104 36.5688V41.3559H81.9567H81.5695ZM93.5339 44.8198C92.975 44.8198 92.4184 44.7321 91.8648 44.5562C91.3128 44.3806 90.8668 44.1528 90.5268 43.8731L91.0956 42.6683C91.3948 42.8977 91.766 43.0833 92.2093 43.225C92.6526 43.3648 93.0941 43.4348 93.5339 43.4348C94.0822 43.4348 94.5408 43.3444 94.9093 43.1631C95.2779 42.984 95.5575 42.7186 95.7479 42.3671C95.9367 42.0158 96.031 41.5783 96.031 41.0547V39.5351L96.1966 39.64C96.1466 39.952 95.9848 40.2505 95.7105 40.5356C95.4362 40.8226 95.0944 41.0565 94.685 41.2375C94.2756 41.4169 93.8571 41.5065 93.4298 41.5065C92.682 41.5065 92.0162 41.329 91.4322 40.974C90.8481 40.6174 90.3871 40.1295 90.0488 39.5109C89.7104 38.8942 89.5413 38.1896 89.5413 37.3971C89.5413 36.6029 89.7077 35.8974 90.0407 35.2806C90.3754 34.662 90.8339 34.1753 91.4161 33.8203C92.0002 33.4635 92.6561 33.2851 93.3844 33.2851C93.6835 33.2851 93.9727 33.3227 94.2523 33.398C94.5301 33.4733 94.7892 33.5782 95.0295 33.7127C95.268 33.8489 95.4827 33.9978 95.6731 34.1591C95.8619 34.3187 96.0158 34.489 96.1352 34.6701C96.2545 34.8512 96.3293 35.0215 96.3595 35.1811L96.031 35.3021V33.4491H97.572V40.8745C97.572 41.5075 97.4793 42.0677 97.2942 42.5553C97.1107 43.0413 96.8447 43.4528 96.4957 43.7898C96.1466 44.1251 95.7231 44.3806 95.2245 44.5562C94.7259 44.7321 94.1623 44.8198 93.5339 44.8198ZM93.5927 40.0757C94.0822 40.0757 94.5159 39.9611 94.8933 39.7315C95.2725 39.5002 95.5671 39.1838 95.7773 38.7822C95.9856 38.3805 96.0898 37.9189 96.0898 37.3971C96.0898 36.8736 95.9829 36.4092 95.7693 36.004C95.5556 35.597 95.2619 35.2779 94.888 35.0466C94.5141 34.8153 94.0822 34.6997 93.5927 34.6997C93.1139 34.6997 92.6873 34.818 92.3135 35.0547C91.9396 35.2896 91.6458 35.6105 91.4322 36.0175C91.2185 36.4245 91.1117 36.8844 91.1117 37.3971C91.1117 37.9081 91.2185 38.3671 91.4322 38.7741C91.6458 39.1811 91.9396 39.5002 92.3135 39.7315C92.6873 39.9611 93.1139 40.0757 93.5927 40.0757ZM105.319 41.3559H103.928V36.2057C103.928 35.7647 103.771 35.4061 103.455 35.13C103.142 34.8539 102.746 34.7158 102.267 34.7158C101.829 34.7158 101.433 34.8063 101.079 34.9875C100.724 35.1667 100.403 35.4428 100.114 35.8158L99.1129 34.8046C99.5811 34.2936 100.087 33.9126 100.63 33.6616C101.173 33.4106 101.759 33.2851 102.387 33.2851C102.985 33.2851 103.503 33.3855 103.941 33.5863C104.381 33.7871 104.72 34.0802 104.959 34.4657C105.199 34.853 105.319 35.3227 105.319 35.8749V41.3559ZM101.581 41.5065C101.071 41.5065 100.617 41.4062 100.219 41.2053C99.8198 41.0046 99.5028 40.7265 99.2678 40.3715C99.0347 40.0147 98.918 39.5951 98.918 39.113C98.918 38.6916 98.9927 38.3205 99.1423 37.9996C99.2919 37.6768 99.5135 37.4106 99.8073 37.2008C100.101 36.9892 100.47 36.8288 100.913 36.7194C101.358 36.6082 101.869 36.5527 102.446 36.5527H104.63L104.497 37.7871H102.254C101.954 37.7871 101.687 37.8149 101.452 37.8705C101.217 37.926 101.018 38.0112 100.854 38.126C100.69 38.2425 100.568 38.3779 100.488 38.5321C100.408 38.688 100.368 38.8718 100.368 39.0834C100.368 39.3039 100.423 39.4966 100.534 39.6615C100.642 39.8283 100.792 39.9566 100.982 40.0461C101.171 40.1376 101.39 40.1833 101.639 40.1833C101.999 40.1833 102.341 40.1206 102.665 39.995C102.989 39.8697 103.277 39.6957 103.53 39.4733C103.785 39.2528 103.982 39.0072 104.123 38.7365L104.481 39.7449C104.271 40.0964 104.012 40.403 103.704 40.6647C103.394 40.9248 103.06 41.13 102.702 41.2806C102.343 41.4312 101.969 41.5065 101.581 41.5065ZM109.325 41.3586H107.787V31.4348H109.325V41.3586ZM111.152 34.9579H106.155V33.4518H111.152V34.9579ZM115.77 41.5065C114.961 41.5065 114.246 41.3335 113.623 40.9874C112.999 40.6413 112.512 40.1672 112.159 39.5647C111.805 38.9624 111.628 38.2694 111.628 37.4859C111.628 36.8637 111.727 36.2963 111.927 35.7835C112.126 35.2725 112.403 34.8288 112.757 34.4523C113.11 34.0758 113.534 33.7844 114.028 33.5782C114.522 33.372 115.057 33.2689 115.636 33.2689C116.144 33.2689 116.617 33.3666 117.057 33.5621C117.495 33.7593 117.876 34.0282 118.2 34.3689C118.524 34.7095 118.773 35.1139 118.948 35.5818C119.122 36.048 119.204 36.5571 119.193 37.1094L119.18 37.7737H112.763L112.421 36.5365H117.847L117.623 36.7947V36.4317C117.595 36.0999 117.485 35.8041 117.295 35.5442C117.106 35.2824 116.867 35.0762 116.576 34.9256C116.288 34.775 115.975 34.6997 115.636 34.6997C115.097 34.6997 114.643 34.8028 114.274 35.009C113.906 35.2151 113.626 35.5163 113.436 35.9126C113.247 36.3088 113.153 36.7983 113.153 37.381C113.153 37.9332 113.267 38.4128 113.497 38.8198C113.727 39.2268 114.051 39.5405 114.469 39.7611C114.888 39.9816 115.371 40.0919 115.919 40.0919C116.307 40.0919 116.669 40.0265 117.004 39.8955C117.338 39.7648 117.7 39.529 118.088 39.1883L118.865 40.2882C118.627 40.5286 118.335 40.7392 117.992 40.9202C117.646 41.1012 117.282 41.2448 116.899 41.3505C116.515 41.4546 116.138 41.5065 115.77 41.5065ZM127.841 41.3586H126.735L123.416 33.4518H125.074L127.467 39.3712L127.184 39.5083L129.74 33.4518H131.326L127.841 41.3586ZM133.839 44.6719H132.282V33.4518H133.839V35.2591L133.599 35.1246C133.66 34.8234 133.829 34.5347 134.109 34.2586C134.387 33.9825 134.728 33.7566 135.132 33.5809C135.536 33.4052 135.953 33.3173 136.382 33.3173C137.089 33.3173 137.716 33.493 138.265 33.8445C138.813 34.1959 139.247 34.6782 139.568 35.2914C139.886 35.9027 140.046 36.6055 140.046 37.3998C140.046 38.1815 139.888 38.8817 139.573 39.5002C139.26 40.1171 138.829 40.6039 138.281 40.9605C137.732 41.3174 137.114 41.4957 136.427 41.4957C135.968 41.4957 135.524 41.4024 135.095 41.216C134.665 41.0313 134.301 40.793 134.002 40.5006C133.703 40.2102 133.519 39.909 133.449 39.597L133.839 39.3873V44.6719ZM136.171 40.065C136.63 40.065 137.04 39.9493 137.399 39.718C137.757 39.4868 138.041 39.1703 138.251 38.7687C138.46 38.3671 138.564 37.9108 138.564 37.3998C138.564 36.887 138.462 36.4325 138.259 36.0363C138.054 35.6401 137.772 35.3263 137.413 35.095C137.055 34.8637 136.641 34.7481 136.171 34.7481C135.703 34.7481 135.289 34.8611 134.932 35.087C134.572 35.3129 134.287 35.6266 134.077 36.0282C133.869 36.4299 133.765 36.887 133.765 37.3998C133.765 37.9108 133.869 38.3671 134.077 38.7687C134.287 39.1703 134.572 39.4868 134.932 39.718C135.289 39.9493 135.703 40.065 136.171 40.065ZM141.272 41.3559V33.4491H142.813V35.0762L142.543 35.2564C142.643 34.905 142.837 34.5814 143.125 34.2855C143.415 33.9897 143.76 33.7485 144.159 33.5621C144.557 33.3774 144.966 33.2851 145.384 33.2851C145.983 33.2851 146.481 33.4025 146.88 33.6374C147.279 33.874 147.578 34.2335 147.777 34.7158C147.977 35.1981 148.077 35.805 148.077 36.5365V41.3559H146.536V36.6441C146.536 36.1923 146.476 35.8176 146.357 35.52C146.237 35.2241 146.053 35.009 145.804 34.8745C145.555 34.7382 145.246 34.6799 144.877 34.6997C144.578 34.6997 144.304 34.7472 144.055 34.8422C143.805 34.939 143.588 35.0726 143.403 35.2429C143.218 35.4133 143.074 35.6114 142.97 35.8373C142.865 36.0632 142.813 36.307 142.813 36.5688V41.3559H141.662H141.272ZM26.7072 17.8015L23.7628 14.5398C23.9248 14.2907 23.991 13.9906 23.949 13.6958C23.907 13.4011 23.7597 13.1319 23.5347 12.9387C23.3097 12.7455 23.0224 12.6416 22.7267 12.6464C22.4311 12.6512 22.1473 12.7645 21.9287 12.9649C21.71 13.1653 21.5714 13.4392 21.5389 13.7352C21.5064 14.0311 21.5822 14.3289 21.7521 14.5726C21.922 14.8163 22.1744 14.9892 22.4618 15.059C22.7493 15.1288 23.0522 15.0905 23.3136 14.9515L26.258 18.2116C26.3864 18.0524 26.5378 17.9136 26.7072 17.7999M25.8139 19.3315L21.6581 19.6192C21.5646 19.3372 21.3723 19.0993 21.1171 18.9499C20.8618 18.8005 20.5613 18.75 20.2717 18.8077C19.9822 18.8655 19.7235 19.0276 19.5441 19.2637C19.3647 19.4998 19.277 19.7937 19.2974 20.0903C19.3178 20.3868 19.4448 20.6657 19.6548 20.8747C19.8647 21.0837 20.1431 21.2084 20.4379 21.2255C20.7326 21.2425 21.0233 21.1508 21.2557 20.9674C21.488 20.7841 21.646 20.5217 21.7 20.2294L25.8545 19.943C25.8108 19.7429 25.7972 19.5373 25.8142 19.3331M25.7298 23.3876C25.3884 23.3132 25.0316 23.3684 24.7282 23.5426C24.4247 23.7169 24.1959 23.9979 24.0856 24.3317C23.9754 24.6655 23.9915 25.0286 24.1308 25.3512C24.2702 25.6738 24.523 25.9331 24.8407 26.0794C25.1584 26.2258 25.5185 26.2487 25.852 26.144C26.1855 26.0392 26.4688 25.814 26.6474 25.5117C26.8261 25.2094 26.8876 24.8513 26.82 24.5062C26.7525 24.161 26.5607 23.8532 26.2815 23.6417L27.2742 21.4545C27.078 21.3982 26.8914 21.3125 26.7206 21.2003L25.7298 23.3876ZM31.7011 17.0864C31.9927 17.3661 32.3775 17.5264 32.7802 17.5357C33.1828 17.545 33.5745 17.4028 33.8786 17.1368C34.1827 16.8709 34.3774 16.5002 34.4247 16.0974C34.4719 15.6946 34.3682 15.2885 34.134 14.9585C33.8997 14.6286 33.5517 14.3984 33.1579 14.3131C32.7641 14.2277 32.3529 14.2933 32.0046 14.497C31.6563 14.7008 31.3959 15.028 31.2744 15.4147C31.1529 15.8014 31.1789 16.2199 31.3475 16.5883L29.278 18.0777C29.4204 18.2245 29.5382 18.39 29.6313 18.5741L31.7011 17.0864ZM32.8163 22.3371C32.5062 22.3366 32.2047 22.4391 31.9582 22.6286L29.5491 20.5648C29.4424 20.7397 29.3103 20.8975 29.157 21.0328L31.5681 23.0944C31.4227 23.37 31.3711 23.6858 31.421 23.9937C31.4709 24.3016 31.6197 24.5846 31.8445 24.7992C32.0693 25.0138 32.3578 25.1484 32.6658 25.1822C32.9737 25.2159 33.2842 25.1472 33.5497 24.9863C33.8151 24.8255 34.0209 24.5814 34.1355 24.2916C34.2501 24.0017 34.2672 23.6821 34.1842 23.3815C34.1012 23.0809 33.9226 22.816 33.6758 22.6274C33.4291 22.4388 33.1277 22.3368 32.8179 22.3371M28.7818 15.8971C29.0363 15.8641 29.2687 15.7347 29.4319 15.5353C29.595 15.3359 29.6767 15.0814 29.6602 14.8235C29.6437 14.5656 29.5303 14.3238 29.3431 14.1471C29.1559 13.9704 28.9089 13.8721 28.6523 13.8723C28.4259 13.8709 28.2058 13.9463 28.0272 14.0864C27.8486 14.2264 27.722 14.4228 27.6678 14.6441C27.6136 14.8654 27.6349 15.0986 27.7283 15.3062C27.8217 15.5137 27.9818 15.6836 28.1828 15.7885L27.8834 17.4626C28.0931 17.4694 28.2922 17.5055 28.4805 17.571L28.7818 15.8971Z" fill="url(#paint2_linear_3128_2111)" style="mix-blend-mode:luminosity"/>
<path d="M29.5475 20.5663C29.7857 20.1813 29.8887 19.7268 29.8399 19.2759C29.7911 18.8249 29.5933 18.4034 29.2783 18.0792C28.9111 17.6981 28.4105 17.4767 27.8834 17.4625L27.8278 17.459C27.5269 17.4589 27.2298 17.5266 26.9582 17.6571C26.6866 17.7876 26.4474 17.9775 26.258 18.2131C26.0653 18.4516 25.9289 18.7311 25.8589 19.0305C25.789 19.3298 25.7874 19.6412 25.8542 19.9413C25.9428 20.3357 26.1458 20.6946 26.4374 20.9725C26.7291 21.2503 27.0963 21.4346 27.4922 21.5017C27.8881 21.5689 28.2949 21.516 28.6609 21.3497C29.0269 21.1834 29.3355 20.9113 29.5475 20.5679" fill="url(#paint3_linear_3128_2111)" style="mix-blend-mode:luminosity"/>
</g>
</g>
</g>
</g>
</g>
<defs>
<filter id="filter0_di_3128_2111" x="-10.9583" y="-17.3829" width="115.49" height="113.716" filterUnits="userSpaceOnUse" color-interpolation-filters="sRGB">
<feFlood flood-opacity="0" result="BackgroundImageFix"/>
<feColorMatrix in="SourceAlpha" type="matrix" values="0 0 0 0 0 0 0 0 0 0 0 0 0 0 0 0 0 0 127 0" result="hardAlpha"/>
<feOffset dx="20" dy="20"/>
<feGaussianBlur stdDeviation="25"/>
<feColorMatrix type="matrix" values="0 0 0 0 0 0 0 0 0 0 0 0 0 0 0 0 0 0 0.37 0"/>
<feBlend mode="normal" in2="BackgroundImageFix" result="effect1_dropShadow_3128_2111"/>
<feBlend mode="normal" in="SourceGraphic" in2="effect1_dropShadow_3128_2111" result="shape"/>
<feColorMatrix in="SourceAlpha" type="matrix" values="0 0 0 0 0 0 0 0 0 0 0 0 0 0 0 0 0 0 127 0" result="hardAlpha"/>
<feOffset/>
<feGaussianBlur stdDeviation="7.5"/>
<feComposite in2="hardAlpha" operator="arithmetic" k2="-1" k3="1"/>
<feColorMatrix type="matrix" values="0 0 0 0 1 0 0 0 0 1 0 0 0 0 1 0 0 0 0.92 0"/>
<feBlend mode="normal" in2="shape" result="effect2_innerShadow_3128_2111"/>
</filter>
<linearGradient id="paint0_linear_3128_2111" x1="7.604" y1="4.57361" x2="252.924" y2="4.57361" gradientUnits="userSpaceOnUse">
<stop stop-color="#106DF8"/>
<stop offset="1" stop-color="#053781"/>
</linearGradient>
<linearGradient id="paint1_linear_3128_2111" x1="16.2729" y1="8.17542" x2="37.4641" y2="31.1876" gradientUnits="userSpaceOnUse">
<stop stop-color="#106DF8"/>
<stop offset="1" stop-color="#053781"/>
</linearGradient>
<linearGradient id="paint2_linear_3128_2111" x1="83.6855" y1="12.6462" x2="83.6855" y2="44.8198" gradientUnits="userSpaceOnUse">
<stop stop-color="white"/>
<stop offset="1" stop-color="#C2C2C2"/>
</linearGradient>
<linearGradient id="paint3_linear_3128_2111" x1="27.8285" y1="17.459" x2="27.8285" y2="21.5301" gradientUnits="userSpaceOnUse">
<stop stop-color="white"/>
<stop offset="1" stop-color="#C2C2C2"/>
</linearGradient>
<clipPath id="clip0_3128_2111">
<rect width="262" height="41" fill="white"/>
</clipPath>
<clipPath id="clip1_3128_2111">
<rect width="210.109" height="32.2875" fill="white" transform="translate(44.2602 3.58752)"/>
</clipPath>
<clipPath id="clip2_3128_2111">
<rect width="763.107" height="62.0125" fill="white" transform="translate(-250.808 -26.1375)"/>
</clipPath>
<clipPath id="clip3_3128_2111">
<rect width="15.4897" height="13.7159" fill="white" transform="translate(19.0417 12.6171)"/>
</clipPath>
</defs>
</svg>
