<svg width="1208" height="189" viewBox="0 0 1208 189" fill="none" xmlns="http://www.w3.org/2000/svg">
<path d="M224.195 131.993V34.0909H237.73V76.8285L235.361 78.4114C236.236 75.3244 237.949 72.4815 240.498 69.8828C243.031 67.284 246.049 65.1656 249.552 63.5276C253.055 61.9054 256.643 61.0943 260.318 61.0943C265.572 61.0943 269.951 62.1259 273.454 64.1891C276.956 66.2681 279.584 69.426 281.335 73.6628C283.086 77.8995 283.962 83.2309 283.962 89.6569V131.993H270.451V90.6019C270.451 86.6329 269.92 83.3411 268.856 80.7266C267.809 78.1279 266.19 76.2379 264.001 75.0566C261.812 73.8596 259.098 73.3478 255.861 73.521C253.234 73.521 250.826 73.9384 248.637 74.7731C246.448 75.6236 244.54 76.797 242.914 78.2933C241.303 79.7895 240.036 81.5299 239.114 83.5144C238.191 85.4989 237.73 87.6409 237.73 89.9404V131.993H224.195ZM330.593 133.292C323.509 133.292 317.231 131.772 311.758 128.733C306.285 125.693 301.992 121.527 298.88 116.235C295.768 110.943 294.213 104.856 294.213 97.9729C294.213 92.5076 295.088 87.5228 296.84 83.0183C298.591 78.5295 301.023 74.6314 304.135 71.3239C307.246 68.0164 310.968 65.457 315.3 63.6458C319.631 61.8345 324.338 60.9289 329.42 60.9289C333.893 60.9289 338.052 61.7873 341.899 63.504C345.746 65.2365 349.092 67.599 351.938 70.5915C354.784 73.584 356.974 77.1356 358.506 81.2464C360.039 85.3414 360.766 89.8144 360.688 94.6654L360.547 100.501H304.205L301.179 89.6333H348.866L346.895 91.9013V88.7119C346.63 85.7981 345.668 83.1994 344.01 80.9156C342.337 78.6161 340.234 76.8049 337.701 75.4819C335.152 74.1589 332.392 73.4974 329.42 73.4974C324.698 73.4974 320.71 74.403 317.458 76.2143C314.221 78.0255 311.773 80.6715 310.116 84.1523C308.443 87.633 307.606 91.9328 307.606 97.0515C307.606 101.903 308.615 106.116 310.632 109.691C312.649 113.266 315.495 116.022 319.17 117.96C322.845 119.897 327.09 120.866 331.907 120.866C335.331 120.866 338.506 120.291 341.43 119.141C344.37 117.991 347.544 115.92 350.953 112.928L357.803 122.59C355.691 124.701 353.127 126.551 350.109 128.142C347.091 129.733 343.893 130.993 340.515 131.922C337.153 132.836 333.846 133.292 330.593 133.292ZM424.512 131.969H412.315V86.7274C412.315 82.8529 410.931 79.7029 408.163 77.2774C405.411 74.8519 401.932 73.6391 397.725 73.6391C393.878 73.6391 390.399 74.4345 387.287 76.0253C384.175 77.6003 381.353 80.0258 378.819 83.3018L370 74.4188C374.128 69.93 378.577 66.5831 383.346 64.3781C388.116 62.1731 393.261 61.0706 398.781 61.0706C404.035 61.0706 408.585 61.9526 412.432 63.7166C416.295 65.4806 419.274 68.0558 421.369 71.442C423.465 74.844 424.512 78.9705 424.512 83.8215V131.969ZM391.673 133.292C387.217 133.292 383.237 132.41 379.734 130.646C376.231 128.882 373.448 126.441 371.384 123.322C369.335 120.188 368.311 116.503 368.311 112.266C368.311 108.565 368.968 105.305 370.281 102.485C371.595 99.6503 373.542 97.3114 376.122 95.4686C378.702 93.6101 381.939 92.2005 385.833 91.2398C389.727 90.2633 394.215 89.775 399.297 89.775H418.484L417.288 100.619H397.584C394.957 100.619 392.62 100.863 390.571 101.351C388.507 101.84 386.755 102.588 385.317 103.596C383.863 104.619 382.791 105.809 382.103 107.163C381.4 108.533 381.048 110.148 381.048 112.006C381.048 113.943 381.525 115.637 382.479 117.086C383.448 118.55 384.762 119.676 386.419 120.464C388.092 121.267 390.024 121.669 392.213 121.669C395.356 121.669 398.351 121.118 401.197 120.015C404.043 118.913 406.584 117.385 408.82 115.432C411.056 113.495 412.784 111.337 414.004 108.959L417.17 117.818C415.325 120.905 413.05 123.598 410.345 125.898C407.624 128.181 404.684 129.985 401.525 131.308C398.382 132.631 395.098 133.292 391.673 133.292ZM469.971 131.993H460.26L431.08 62.5354H445.67L466.687 114.534L464.2 115.739L486.648 62.5354H500.581L469.971 131.993ZM541.161 133.292C534.077 133.292 527.798 131.772 522.325 128.733C516.852 125.693 512.559 121.527 509.448 116.235C506.336 110.943 504.78 104.856 504.78 97.9729C504.78 92.5076 505.655 87.5228 507.407 83.0183C509.158 78.5295 511.59 74.6314 514.702 71.3239C517.814 68.0164 521.535 65.457 525.867 63.6458C530.199 61.8345 534.905 60.9289 539.988 60.9289C544.444 60.9289 548.604 61.7873 552.466 63.504C556.313 65.2365 559.66 67.599 562.506 70.5915C565.352 73.584 567.541 77.1356 569.073 81.2464C570.606 85.3414 571.333 89.8144 571.255 94.6654L571.114 100.501H514.772L511.746 89.6333H559.433L557.463 91.9013V88.7119C557.197 85.7981 556.227 83.1994 554.554 80.9156C552.896 78.6161 550.801 76.8049 548.268 75.4819C545.719 74.1589 542.959 73.4974 539.988 73.4974C535.249 73.4974 531.262 74.403 528.025 76.2143C524.788 78.0255 522.341 80.6715 520.683 84.1523C519.01 87.633 518.173 91.9328 518.173 97.0515C518.173 101.903 519.182 106.116 521.199 109.691C523.216 113.266 526.062 116.022 529.737 117.96C533.412 119.897 537.658 120.866 542.474 120.866C545.899 120.866 549.073 120.291 551.997 119.141C554.937 117.991 558.112 115.92 561.521 112.928L568.346 122.59C566.251 124.701 563.694 126.551 560.676 128.142C557.658 129.733 554.46 130.993 551.083 131.922C547.705 132.836 544.397 133.292 541.161 133.292ZM582.021 131.969V62.5118H595.556V76.8049L593.187 78.3878C594.062 75.3008 595.767 72.4579 598.3 69.8591C600.849 67.2604 603.875 65.142 607.378 63.504C610.88 61.8818 614.469 61.0706 618.144 61.0706C623.398 61.0706 627.777 62.1023 631.28 64.1655C634.782 66.2445 637.41 69.4024 639.161 73.6391C640.912 77.8759 641.788 83.2073 641.788 89.6333V131.969H628.254V90.5783C628.254 86.6093 627.73 83.3175 626.682 80.703C625.634 78.1043 624.016 76.2143 621.827 75.033C619.637 73.836 616.917 73.3241 613.664 73.4974C611.037 73.4974 608.629 73.9148 606.439 74.7495C604.25 75.6 602.35 76.7734 600.74 78.2696C599.113 79.7659 597.839 81.5063 596.916 83.4908C596.009 85.4753 595.556 87.6173 595.556 89.9168V131.969H582.021ZM687.106 162.398C682.195 162.398 677.309 161.627 672.445 160.083C667.598 158.54 663.681 156.539 660.694 154.082L665.69 143.498C668.317 145.514 671.578 147.144 675.471 148.389C679.365 149.617 683.243 150.231 687.106 150.231C691.922 150.231 695.949 149.436 699.186 147.845C702.423 146.27 704.878 143.939 706.551 140.852C708.208 137.765 709.037 133.922 709.037 129.323V115.975L710.492 116.897C710.054 119.637 708.631 122.259 706.222 124.764C703.814 127.284 700.812 129.339 697.215 130.93C693.619 132.505 689.944 133.292 686.191 133.292C679.623 133.292 673.775 131.733 668.646 128.615C663.516 125.48 659.466 121.196 656.495 115.763C653.524 110.345 652.038 104.155 652.038 97.1933C652.038 90.216 653.501 84.0184 656.425 78.6004C659.365 73.1666 663.391 68.8905 668.505 65.772C673.634 62.6378 679.396 61.0706 685.792 61.0706C688.419 61.0706 690.96 61.4014 693.415 62.0629C695.855 62.7244 698.13 63.6458 700.241 64.827C702.337 66.024 704.221 67.3313 705.894 68.7488C707.552 70.1505 708.904 71.6468 709.952 73.2375C711 74.8283 711.657 76.3245 711.922 77.7263L709.037 78.7894V62.5118H722.572V127.74C722.572 133.3 721.758 138.222 720.132 142.506C718.521 146.774 716.184 150.389 713.119 153.35C710.054 156.295 706.332 158.54 701.953 160.083C697.575 161.627 692.626 162.398 687.106 162.398ZM687.622 120.724C691.922 120.724 695.73 119.716 699.045 117.7C702.376 115.668 704.964 112.888 706.809 109.36C708.638 105.832 709.553 101.777 709.553 97.1933C709.553 92.5943 708.615 88.515 706.739 84.9555C704.862 81.3803 702.282 78.5768 698.998 76.545C695.714 74.5133 691.922 73.4974 687.622 73.4974C683.415 73.4974 679.67 74.5369 676.386 76.6159C673.102 78.6791 670.522 81.4984 668.646 85.0736C666.769 88.6489 665.831 92.6888 665.831 97.1933C665.831 101.682 666.769 105.714 668.646 109.289C670.522 112.865 673.102 115.668 676.386 117.7C679.67 119.716 683.415 120.724 687.622 120.724ZM790.618 131.969H778.398V86.7274C778.398 82.8529 777.014 79.7029 774.246 77.2774C771.494 74.8519 768.014 73.6391 763.808 73.6391C759.961 73.6391 756.482 74.4345 753.37 76.0253C750.258 77.6003 747.435 80.0258 744.902 83.3018L736.106 74.4188C740.219 69.93 744.66 66.5831 749.429 64.3781C754.199 62.1731 759.343 61.0706 764.863 61.0706C770.117 61.0706 774.668 61.9526 778.515 63.7166C782.377 65.4806 785.356 68.0558 787.452 71.442C789.563 74.844 790.618 78.9705 790.618 83.8215V131.969ZM757.779 133.292C753.307 133.292 749.32 132.41 745.817 130.646C742.314 128.882 739.53 126.441 737.466 123.322C735.418 120.188 734.394 116.503 734.394 112.266C734.394 108.565 735.05 105.305 736.364 102.485C737.677 99.6503 739.624 97.3114 742.205 95.4686C744.785 93.6101 748.022 92.2005 751.915 91.2398C755.825 90.2633 760.313 89.775 765.379 89.775H784.567L783.394 100.619H763.69C761.063 100.619 758.718 100.863 756.654 101.351C754.589 101.84 752.838 102.588 751.399 103.596C749.961 104.619 748.89 105.809 748.186 107.163C747.482 108.533 747.13 110.148 747.13 112.006C747.13 113.943 747.615 115.637 748.585 117.086C749.539 118.55 750.852 119.676 752.525 120.464C754.183 121.267 756.106 121.669 758.295 121.669C761.454 121.669 764.457 121.118 767.303 120.015C770.149 118.913 772.682 117.385 774.903 115.432C777.139 113.495 778.875 111.337 780.11 108.959L783.253 117.818C781.408 120.905 779.133 123.598 776.427 125.898C773.706 128.181 770.774 129.985 767.631 131.308C764.472 132.631 761.188 133.292 757.779 133.292ZM825.803 131.993H812.292V44.8166H825.803V131.993ZM841.847 75.7654H797.96V62.5354H841.847V75.7654ZM882.403 133.292C875.303 133.292 869.017 131.772 863.544 128.733C858.071 125.693 853.786 121.527 850.69 116.235C847.578 110.943 846.022 104.856 846.022 97.9729C846.022 92.5076 846.898 87.5228 848.649 83.0183C850.401 78.5295 852.832 74.6314 855.944 71.3239C859.04 68.0164 862.762 65.457 867.109 63.6458C871.441 61.8345 876.148 60.9289 881.23 60.9289C885.687 60.9289 889.846 61.7873 893.709 63.504C897.556 65.2365 900.902 67.599 903.748 70.5915C906.594 73.584 908.783 77.1356 910.316 81.2464C911.848 85.3414 912.568 89.8144 912.474 94.6654L912.357 100.501H855.991L852.989 89.6333H900.652L898.682 91.9013V88.7119C898.431 85.7981 897.47 83.1994 895.796 80.9156C894.139 78.6161 892.036 76.8049 889.487 75.4819C886.953 74.1589 884.201 73.4974 881.23 73.4974C876.492 73.4974 872.504 74.403 869.267 76.2143C866.03 78.0255 863.575 80.6715 861.902 84.1523C860.244 87.633 859.416 91.9328 859.416 97.0515C859.416 101.903 860.424 106.116 862.442 109.691C864.459 113.266 867.305 116.022 870.98 117.96C874.654 119.897 878.9 120.866 883.716 120.866C887.125 120.866 890.3 120.291 893.24 119.141C896.18 117.991 899.354 115.92 902.763 112.928L909.589 122.59C907.493 124.701 904.937 126.551 901.918 128.142C898.885 129.733 895.687 130.993 892.325 131.922C888.947 132.836 885.64 133.292 882.403 133.292ZM988.425 131.993H978.714L949.558 62.5354H964.125L985.141 114.534L982.655 115.739L1005.1 62.5354H1019.04L988.425 131.993ZM1041.11 161.099H1027.43V62.5354H1041.11V78.4114L1039 77.2302C1039.53 74.5842 1041.02 72.0484 1043.48 69.6229C1045.92 67.1974 1048.91 65.2129 1052.46 63.6694C1056.01 62.1259 1059.67 61.3542 1063.44 61.3542C1069.65 61.3542 1075.16 62.8976 1079.98 65.9846C1084.79 69.0716 1088.61 73.3084 1091.42 78.6949C1094.22 84.0656 1095.62 90.2396 1095.62 97.2169C1095.62 104.084 1094.24 110.234 1091.47 115.668C1088.72 121.086 1084.93 125.362 1080.12 128.496C1075.3 131.631 1069.87 133.198 1063.84 133.198C1059.8 133.198 1055.9 132.379 1052.13 130.741C1048.36 129.118 1045.17 127.024 1042.54 124.456C1039.91 121.905 1038.29 119.259 1037.68 116.519L1041.11 114.676V161.099ZM1061.59 120.629C1065.62 120.629 1069.22 119.613 1072.38 117.582C1075.52 115.55 1078.01 112.77 1079.86 109.242C1081.69 105.714 1082.6 101.706 1082.6 97.2169C1082.6 92.7124 1081.71 88.7198 1079.93 85.239C1078.13 81.7583 1075.65 79.002 1072.49 76.9703C1069.35 74.9385 1065.71 73.9226 1061.59 73.9226C1057.47 73.9226 1053.85 74.9149 1050.7 76.8994C1047.54 78.8839 1045.04 81.6401 1043.2 85.1681C1041.37 88.6961 1040.45 92.7124 1040.45 97.2169C1040.45 101.706 1041.37 105.714 1043.2 109.242C1045.04 112.77 1047.54 115.55 1050.7 117.582C1053.85 119.613 1057.47 120.629 1061.59 120.629ZM1106.39 131.969V62.5118H1119.92V76.8049L1117.55 78.3878C1118.43 75.3008 1120.13 72.4579 1122.67 69.8591C1125.21 67.2604 1128.24 65.142 1131.74 63.504C1135.25 61.8818 1138.83 61.0706 1142.51 61.0706C1147.76 61.0706 1152.14 62.1023 1155.65 64.1655C1159.15 66.2445 1161.78 69.4024 1163.53 73.6391C1165.28 77.8759 1166.15 83.2073 1166.15 89.6333V131.969H1152.62V90.5783C1152.62 86.6093 1152.1 83.3175 1151.05 80.703C1150 78.1043 1148.38 76.2143 1146.19 75.033C1144 73.836 1141.29 73.3241 1138.05 73.4974C1135.43 73.4974 1133.02 73.9148 1130.83 74.7495C1128.64 75.6 1126.73 76.7734 1125.11 78.2696C1123.48 79.7659 1122.21 81.5063 1121.31 83.4908C1120.38 85.4753 1119.92 87.6173 1119.92 89.9168V131.969H1106.39Z" fill="url(#paint0_linear_3128_2157)"/>
<path d="M65.6776 78.3548C65.6776 61.0381 65.6776 52.3797 68.9705 45.7423C71.9928 39.6501 76.897 34.7106 82.9457 31.6665C89.5357 28.35 98.1323 28.35 115.325 28.35H138.003C155.196 28.35 163.792 28.35 170.382 31.6665C176.431 34.7106 181.335 39.6501 184.358 45.7423C187.65 52.3797 187.65 61.0381 187.65 78.3548V101.195C187.65 118.512 187.65 127.17 184.358 133.808C181.335 139.9 176.431 144.839 170.382 147.883C163.792 151.2 155.196 151.2 138.003 151.2H115.325C98.1323 151.2 89.5357 151.2 82.9457 147.883C76.897 144.839 71.9928 139.9 68.9705 133.808C65.6776 127.17 65.6776 118.512 65.6776 101.195V78.3548Z" fill="url(#paint1_linear_3128_2157)"/>
<path d="M123.139 82.0603L109.563 67.0247C110.31 65.8763 110.615 64.4931 110.421 63.1344C110.228 61.7757 109.548 60.5347 108.511 59.6441C107.474 58.7535 106.149 58.2745 104.786 58.2967C103.423 58.3189 102.115 58.841 101.106 59.7649C100.098 60.6889 99.4592 61.9514 99.3093 63.3157C99.1595 64.68 99.509 66.0525 100.292 67.176C101.076 68.2994 102.239 69.0966 103.565 69.4182C104.89 69.7398 106.286 69.5636 107.492 68.9227L121.068 83.9509C121.66 83.2172 122.358 82.5773 123.139 82.0529M119.02 89.1132L99.8589 90.4397C99.428 89.1399 98.541 88.0428 97.3643 87.3543C96.1876 86.6656 94.8018 86.4326 93.4667 86.6989C92.1316 86.9654 90.9388 87.7127 90.1118 88.801C89.2848 89.8894 88.8804 91.2441 88.9743 92.6111C89.0683 93.9782 89.6542 95.2639 90.6222 96.2272C91.5902 97.1905 92.8738 97.7654 94.2327 97.8441C95.5915 97.9228 96.9322 97.4999 98.0035 96.6547C99.0748 95.8094 99.8032 94.5999 100.052 93.2527L119.207 91.9324C119.006 91.0098 118.943 90.062 119.021 89.1206M118.632 107.811C117.058 107.468 115.413 107.722 114.014 108.526C112.615 109.329 111.56 110.624 111.051 112.163C110.543 113.702 110.617 115.376 111.26 116.863C111.902 118.35 113.068 119.545 114.533 120.22C115.997 120.894 117.658 121 119.196 120.517C120.733 120.034 122.039 118.996 122.863 117.603C123.687 116.209 123.97 114.558 123.659 112.967C123.348 111.376 122.463 109.957 121.176 108.983L125.753 98.8997C124.848 98.6405 123.988 98.2455 123.2 97.7282L118.632 107.811ZM146.164 78.7638C147.508 80.0535 149.282 80.7922 151.139 80.8352C152.996 80.8782 154.802 80.2226 156.204 78.9965C157.606 77.7704 158.504 76.062 158.721 74.2051C158.939 72.3482 158.461 70.4762 157.381 68.9551C156.301 67.434 154.696 66.3731 152.881 65.9797C151.065 65.5863 149.169 65.8886 147.563 66.8277C145.957 67.7668 144.757 69.2751 144.197 71.0579C143.636 72.8405 143.756 74.7695 144.534 76.4678L134.992 83.3335C135.648 84.0104 136.191 84.7732 136.621 85.6221L146.164 78.7638ZM151.306 102.969C149.876 102.966 148.486 103.439 147.35 104.312L136.242 94.7987C135.75 95.605 135.141 96.3322 134.434 96.9558L145.551 106.46C144.88 107.73 144.642 109.186 144.872 110.605C145.103 112.024 145.788 113.329 146.825 114.318C147.862 115.308 149.192 115.928 150.612 116.084C152.032 116.239 153.463 115.922 154.687 115.181C155.911 114.439 156.86 113.314 157.388 111.978C157.917 110.642 157.995 109.168 157.613 107.783C157.23 106.397 156.407 105.176 155.269 104.307C154.131 103.437 152.742 102.967 151.313 102.969M132.704 73.2817C133.877 73.1295 134.949 72.533 135.701 71.6138C136.454 70.6945 136.83 69.5213 136.754 68.3326C136.678 67.144 136.155 66.0291 135.292 65.2146C134.429 64.4001 133.29 63.9471 132.107 63.9477C131.063 63.9415 130.048 64.2891 129.225 64.9345C128.401 65.5799 127.818 66.4855 127.568 67.5055C127.318 68.5256 127.416 69.6006 127.847 70.5575C128.277 71.5145 129.015 72.2976 129.942 72.7809L128.562 80.4982C129.529 80.5296 130.446 80.6961 131.315 80.9979L132.704 73.2817Z" fill="url(#paint2_linear_3128_2157)" style="mix-blend-mode:luminosity"/>
<path d="M136.234 94.8057C137.333 93.0309 137.808 90.936 137.582 88.8571C137.357 86.7781 136.446 84.8355 134.993 83.3406C133.3 81.5839 130.992 80.5639 128.562 80.4982L128.306 80.4817C126.918 80.4815 125.548 80.7935 124.296 81.3949C123.043 81.9965 121.941 82.8721 121.068 83.958C120.179 85.0576 119.55 86.346 119.227 87.7259C118.905 89.1058 118.898 90.5414 119.206 91.9246C119.614 93.7425 120.55 95.3971 121.895 96.678C123.24 97.9589 124.932 98.8082 126.758 99.1178C128.583 99.4275 130.459 99.1836 132.146 98.4171C133.834 97.6506 135.257 96.3961 136.234 94.8132" fill="url(#paint3_linear_3128_2157)" style="mix-blend-mode:luminosity"/>
<defs>
<linearGradient id="paint0_linear_3128_2157" x1="35.0595" y1="21.0832" x2="1166.15" y2="21.0832" gradientUnits="userSpaceOnUse">
<stop stop-color="#106DF8"/>
<stop offset="1" stop-color="#053781"/>
</linearGradient>
<linearGradient id="paint1_linear_3128_2157" x1="75.0289" y1="37.6866" x2="172.714" y2="143.787" gradientUnits="userSpaceOnUse">
<stop stop-color="#106DF8"/>
<stop offset="1" stop-color="#053781"/>
</linearGradient>
<linearGradient id="paint2_linear_3128_2157" x1="385.848" y1="58.296" x2="385.848" y2="206.608" gradientUnits="userSpaceOnUse">
<stop stop-color="white"/>
<stop offset="1" stop-color="#C2C2C2"/>
</linearGradient>
<linearGradient id="paint3_linear_3128_2157" x1="128.308" y1="80.4817" x2="128.308" y2="99.2484" gradientUnits="userSpaceOnUse">
<stop stop-color="white"/>
<stop offset="1" stop-color="#C2C2C2"/>
</linearGradient>
</defs>
</svg>
