<svg width="1012" height="158" viewBox="0 0 1012 158" fill="none" xmlns="http://www.w3.org/2000/svg">
<g filter="url(#filter0_d_3128_2184)">
<path d="M60.2716 115.125V17.2226H73.8059V59.9602L71.4368 61.5431C72.3125 58.4561 74.0248 55.6132 76.5737 53.0145C79.107 50.4157 82.1251 48.2974 85.6279 46.6594C89.1307 45.0371 92.7195 44.226 96.3943 44.226C101.649 44.226 106.027 45.2576 109.53 47.3209C113.033 49.3998 115.66 52.5577 117.411 56.7945C119.163 61.0312 120.038 66.3626 120.038 72.7886V115.125H106.527V73.7336C106.527 69.7646 105.996 66.4729 104.932 63.8584C103.885 61.2596 102.266 59.3696 100.077 58.1883C97.8877 56.9913 95.1746 56.4795 91.9376 56.6527C89.3105 56.6527 86.9023 57.0701 84.7131 57.9049C82.5238 58.7554 80.616 59.9287 78.9897 61.425C77.3791 62.9212 76.1124 64.6616 75.1898 66.6461C74.2672 68.6306 73.8059 70.7726 73.8059 73.0721V115.125H60.2716ZM166.669 116.424C159.586 116.424 153.307 114.904 147.834 111.864C142.361 108.825 138.068 104.659 134.956 99.3667C131.845 94.0747 130.289 87.9874 130.289 81.1046C130.289 75.6394 131.164 70.6545 132.916 66.15C134.667 61.6612 137.099 57.7631 140.211 54.4556C143.323 51.1481 147.044 48.5887 151.376 46.7775C155.708 44.9662 160.414 44.0606 165.497 44.0606C169.969 44.0606 174.128 44.919 177.975 46.6357C181.822 48.3682 185.169 50.7307 188.015 53.7232C190.861 56.7157 193.05 60.2674 194.582 64.3781C196.115 68.4731 196.842 72.9461 196.764 77.7971L196.623 83.6325H140.281L137.255 72.765H184.942L182.972 75.033V71.8436C182.706 68.9299 181.744 66.3311 180.086 64.0473C178.413 61.7478 176.31 59.9366 173.777 58.6136C171.228 57.2906 168.468 56.6291 165.497 56.6291C160.774 56.6291 156.786 57.5347 153.534 59.346C150.297 61.1572 147.85 63.8032 146.192 67.284C144.519 70.7647 143.682 75.0645 143.682 80.1832C143.682 85.0342 144.691 89.2474 146.708 92.8226C148.725 96.3979 151.571 99.1541 155.246 101.091C158.921 103.029 163.167 103.997 167.983 103.997C171.408 103.997 174.582 103.422 177.506 102.273C180.446 101.123 183.62 99.0517 187.029 96.0592L193.879 105.722C191.768 107.832 189.203 109.683 186.185 111.274C183.167 112.864 179.969 114.124 176.591 115.054C173.229 115.967 169.922 116.424 166.669 116.424ZM260.588 115.101H248.391V69.8591C248.391 65.9846 247.007 62.8346 244.239 60.4091C241.487 57.9836 238.008 56.7708 233.801 56.7708C229.955 56.7708 226.475 57.5662 223.363 59.157C220.251 60.732 217.429 63.1575 214.896 66.4335L206.076 57.5505C210.204 53.0617 214.653 49.7149 219.423 47.5099C224.192 45.3049 229.337 44.2024 234.857 44.2024C240.111 44.2024 244.662 45.0844 248.508 46.8484C252.371 48.6124 255.35 51.1875 257.445 54.5737C259.541 57.9757 260.588 62.1022 260.588 66.9532V115.101ZM227.75 116.424C223.293 116.424 219.313 115.542 215.81 113.778C212.308 112.014 209.524 109.573 207.46 106.454C205.411 103.32 204.387 99.6345 204.387 95.3977C204.387 91.6965 205.044 88.4362 206.357 85.617C207.671 82.782 209.618 80.4431 212.198 78.6004C214.778 76.7419 218.015 75.3322 221.909 74.3715C225.803 73.395 230.291 72.9067 235.373 72.9067H254.56L253.364 83.7506H233.661C231.034 83.7506 228.696 83.9947 226.647 84.483C224.583 84.9712 222.832 85.7193 221.393 86.7273C219.939 87.7511 218.867 88.9402 218.179 90.2947C217.476 91.665 217.124 93.2794 217.124 95.1379C217.124 97.0751 217.601 98.7682 218.555 100.217C219.524 101.682 220.838 102.808 222.495 103.596C224.169 104.399 226.1 104.8 228.289 104.8C231.432 104.8 234.427 104.249 237.273 103.147C240.119 102.044 242.66 100.516 244.896 98.5635C247.132 96.6262 248.86 94.4685 250.08 92.0902L253.247 100.95C251.401 104.037 249.126 106.73 246.421 109.029C243.7 111.313 240.76 113.116 237.601 114.439C234.458 115.762 231.174 116.424 227.75 116.424ZM306.047 115.125H296.336L267.156 45.6671H281.746L302.763 97.6657L300.276 98.8706L322.724 45.6671H336.657L306.047 115.125ZM377.237 116.424C370.153 116.424 363.874 114.904 358.401 111.864C352.928 108.825 348.636 104.659 345.524 99.3667C342.412 94.0747 340.856 87.9874 340.856 81.1046C340.856 75.6394 341.732 70.6545 343.483 66.15C345.234 61.6612 347.666 57.7631 350.778 54.4556C353.89 51.1481 357.612 48.5887 361.943 46.7775C366.275 44.9662 370.982 44.0606 376.064 44.0606C380.521 44.0606 384.68 44.919 388.543 46.6357C392.389 48.3682 395.736 50.7307 398.582 53.7232C401.428 56.7157 403.617 60.2674 405.15 64.3781C406.682 68.4731 407.409 72.9461 407.331 77.7971L407.19 83.6325H350.848L347.822 72.765H395.509L393.539 75.033V71.8436C393.273 68.9299 392.303 66.3311 390.63 64.0473C388.973 61.7478 386.877 59.9366 384.344 58.6136C381.795 57.2906 379.035 56.6291 376.064 56.6291C371.326 56.6291 367.338 57.5347 364.101 59.346C360.864 61.1572 358.417 63.8032 356.759 67.284C355.086 70.7647 354.25 75.0645 354.25 80.1832C354.25 85.0342 355.258 89.2474 357.275 92.8226C359.293 96.3979 362.139 99.1541 365.813 101.091C369.488 103.029 373.734 103.997 378.55 103.997C381.975 103.997 385.149 103.422 388.073 102.273C391.013 101.123 394.188 99.0517 397.597 96.0592L404.423 105.722C402.327 107.832 399.77 109.683 396.752 111.274C393.734 112.864 390.536 114.124 387.159 115.054C383.781 115.967 380.474 116.424 377.237 116.424ZM418.098 115.101V45.6435H431.632V59.9366L429.263 61.5195C430.138 58.4325 431.843 55.5896 434.376 52.9909C436.925 50.3921 439.951 48.2737 443.454 46.6357C446.957 45.0135 450.545 44.2024 454.22 44.2024C459.474 44.2024 463.853 45.234 467.356 47.2972C470.859 49.3762 473.486 52.5341 475.237 56.7708C476.988 61.0076 477.864 66.339 477.864 72.765V115.101H464.33V73.71C464.33 69.741 463.806 66.4492 462.758 63.8347C461.711 61.236 460.092 59.346 457.903 58.1647C455.714 56.9677 452.993 56.4559 449.74 56.6291C447.113 56.6291 444.705 57.0465 442.516 57.8812C440.326 58.7317 438.426 59.9051 436.816 61.4013C435.189 62.8976 433.915 64.638 432.992 66.6225C432.085 68.607 431.632 70.749 431.632 73.0485V115.101H418.098ZM523.182 145.53C518.272 145.53 513.385 144.758 508.522 143.215C503.674 141.671 499.757 139.671 496.77 137.214L501.766 126.63C504.393 128.646 507.654 130.276 511.547 131.52C515.441 132.749 519.319 133.363 523.182 133.363C527.998 133.363 532.025 132.568 535.262 130.977C538.499 129.402 540.954 127.071 542.627 123.984C544.285 120.897 545.113 117.054 545.113 112.455V99.1068L546.568 100.028C546.13 102.769 544.707 105.391 542.299 107.895C539.89 110.415 536.888 112.471 533.291 114.061C529.695 115.636 526.02 116.424 522.267 116.424C515.699 116.424 509.851 114.865 504.722 111.746C499.593 108.612 495.542 104.328 492.571 98.8942C489.6 93.4762 488.115 87.2865 488.115 80.325C488.115 73.3477 489.577 67.1501 492.501 61.7321C495.441 56.2983 499.467 52.0222 504.581 48.9037C509.71 45.7695 515.472 44.2024 521.868 44.2024C524.495 44.2024 527.036 44.5331 529.492 45.1946C531.931 45.8561 534.206 46.7775 536.317 47.9587C538.413 49.1557 540.297 50.463 541.97 51.8805C543.628 53.2822 544.981 54.7785 546.028 56.3692C547.076 57.96 547.733 59.4562 547.999 60.858L545.113 61.9211V45.6435H558.648V110.872C558.648 116.432 557.835 121.354 556.208 125.638C554.598 129.906 552.26 133.521 549.195 136.482C546.13 139.427 542.408 141.671 538.03 143.215C533.651 144.758 528.702 145.53 523.182 145.53ZM523.698 103.855C527.998 103.855 531.806 102.847 535.121 100.831C538.452 98.7997 541.04 96.0199 542.885 92.4919C544.715 88.9639 545.629 84.9082 545.629 80.325C545.629 75.726 544.691 71.6467 542.815 68.0872C540.938 64.512 538.358 61.7085 535.074 59.6767C531.79 57.645 527.998 56.6291 523.698 56.6291C519.491 56.6291 515.746 57.6686 512.462 59.7476C509.178 61.8109 506.598 64.6301 504.722 68.2054C502.845 71.7806 501.907 75.8205 501.907 80.325C501.907 84.8137 502.845 88.8457 504.722 92.421C506.598 95.9962 509.178 98.7997 512.462 100.831C515.746 102.847 519.491 103.855 523.698 103.855ZM626.694 115.101H614.474V69.8591C614.474 65.9846 613.09 62.8346 610.322 60.4091C607.57 57.9836 604.09 56.7708 599.884 56.7708C596.037 56.7708 592.558 57.5662 589.446 59.157C586.334 60.732 583.511 63.1575 580.978 66.4335L572.182 57.5505C576.295 53.0617 580.736 49.7149 585.505 47.5099C590.275 45.3049 595.419 44.2024 600.939 44.2024C606.194 44.2024 610.744 45.0844 614.591 46.8484C618.453 48.6124 621.432 51.1875 623.528 54.5737C625.639 57.9757 626.694 62.1022 626.694 66.9532V115.101ZM593.856 116.424C589.383 116.424 585.396 115.542 581.893 113.778C578.39 112.014 575.607 109.573 573.542 106.454C571.494 103.32 570.47 99.6345 570.47 95.3977C570.47 91.6965 571.126 88.4362 572.44 85.617C573.754 82.782 575.701 80.4431 578.281 78.6004C580.861 76.7419 584.098 75.3322 587.992 74.3715C591.901 73.395 596.389 72.9067 601.455 72.9067H620.643L619.47 83.7506H599.767C597.139 83.7506 594.794 83.9947 592.73 84.483C590.666 84.9712 588.914 85.7193 587.476 86.7273C586.037 87.7511 584.966 88.9402 584.262 90.2947C583.558 91.665 583.206 93.2794 583.206 95.1379C583.206 97.0751 583.691 98.7682 584.661 100.217C585.615 101.682 586.928 102.808 588.601 103.596C590.259 104.399 592.182 104.8 594.372 104.8C597.53 104.8 600.533 104.249 603.379 103.147C606.225 102.044 608.758 100.516 610.979 98.5635C613.215 96.6262 614.951 94.4685 616.186 92.0902L619.329 100.95C617.484 104.037 615.209 106.73 612.503 109.029C609.782 111.313 606.85 113.116 603.707 114.439C600.549 115.762 597.265 116.424 593.856 116.424ZM661.879 115.125H648.368V27.9484H661.879V115.125ZM677.923 58.8971H634.036V45.6671H677.923V58.8971ZM718.479 116.424C711.38 116.424 705.093 114.904 699.62 111.864C694.147 108.825 689.862 104.659 686.766 99.3667C683.654 94.0747 682.098 87.9874 682.098 81.1046C682.098 75.6394 682.974 70.6545 684.725 66.15C686.477 61.6612 688.908 57.7631 692.02 54.4556C695.117 51.1481 698.838 48.5887 703.186 46.7775C707.517 44.9662 712.224 44.0606 717.306 44.0606C721.763 44.0606 725.922 44.919 729.785 46.6357C733.632 48.3682 736.978 50.7307 739.824 53.7232C742.67 56.7157 744.86 60.2674 746.392 64.3781C747.924 68.4731 748.644 72.9461 748.55 77.7971L748.433 83.6325H692.067L689.065 72.765H736.728L734.758 75.033V71.8436C734.507 68.9299 733.546 66.3311 731.873 64.0473C730.215 61.7478 728.112 59.9366 725.563 58.6136C723.03 57.2906 720.277 56.6291 717.306 56.6291C712.568 56.6291 708.58 57.5347 705.343 59.346C702.107 61.1572 699.651 63.8032 697.978 67.284C696.321 70.7647 695.492 75.0645 695.492 80.1832C695.492 85.0342 696.5 89.2474 698.518 92.8226C700.535 96.3979 703.381 99.1541 707.056 101.091C710.731 103.029 714.976 103.997 719.793 103.997C723.202 103.997 726.376 103.422 729.316 102.273C732.256 101.123 735.43 99.0517 738.839 96.0592L745.665 105.722C743.569 107.832 741.013 109.683 737.995 111.274C734.961 112.864 731.763 114.124 728.401 115.054C725.023 115.967 721.716 116.424 718.479 116.424ZM824.502 115.125H814.791L785.634 45.6671H800.201L821.218 97.6657L818.731 98.8706L841.179 45.6671H855.112L824.502 115.125ZM877.184 144.231H863.509V45.6671H877.184V61.5431L875.073 60.3619C875.605 57.7159 877.098 55.1801 879.553 52.7546C881.993 50.3291 884.988 48.3446 888.537 46.8011C892.087 45.2576 895.746 44.4859 899.515 44.4859C905.723 44.4859 911.235 46.0294 916.052 49.1164C920.868 52.2034 924.683 56.4401 927.498 61.8266C930.297 67.1973 931.697 73.3714 931.697 80.3486C931.697 87.2156 930.313 93.366 927.545 98.7997C924.793 104.218 921.009 108.494 916.192 111.628C911.376 114.762 905.95 116.329 899.914 116.329C895.879 116.329 891.977 115.51 888.209 113.872C884.44 112.25 881.242 110.155 878.615 107.588C875.988 105.037 874.37 102.391 873.76 99.6502L877.184 97.8075V144.231ZM897.662 103.761C901.696 103.761 905.293 102.745 908.452 100.713C911.595 98.6816 914.089 95.9017 915.934 92.3737C917.764 88.8457 918.679 84.8373 918.679 80.3486C918.679 75.8441 917.787 71.8515 916.005 68.3707C914.206 64.89 911.728 62.1337 908.569 60.102C905.426 58.0702 901.79 57.0544 897.662 57.0544C893.549 57.0544 889.921 58.0466 886.778 60.0311C883.619 62.0156 881.117 64.7719 879.272 68.2999C877.442 71.8279 876.528 75.8441 876.528 80.3486C876.528 84.8373 877.442 88.8457 879.272 92.3737C881.117 95.9017 883.619 98.6816 886.778 100.713C889.921 102.745 893.549 103.761 897.662 103.761ZM942.463 115.101V45.6435H955.998V59.9366L953.629 61.5195C954.504 58.4325 956.209 55.5896 958.742 52.9909C961.291 50.3921 964.317 48.2737 967.819 46.6357C971.322 45.0135 974.911 44.2024 978.586 44.2024C983.84 44.2024 988.219 45.234 991.721 47.2972C995.224 49.3762 997.851 52.5341 999.603 56.7708C1001.35 61.0076 1002.23 66.339 1002.23 72.765V115.101H988.696V73.71C988.696 69.741 988.172 66.4492 987.124 63.8347C986.076 61.236 984.458 59.346 982.269 58.1647C980.079 56.9677 977.366 56.4559 974.129 56.6291C971.502 56.6291 969.094 57.0465 966.905 57.8812C964.715 58.7317 962.808 59.9051 961.181 61.4013C959.555 62.8976 958.288 64.638 957.382 66.6225C956.459 68.607 955.998 70.749 955.998 73.0485V115.101H942.463Z" fill="url(#paint0_linear_3128_2184)"/>
</g>
<defs>
<filter id="filter0_d_3128_2184" x="0" y="0" width="1011.93" height="157.499" filterUnits="userSpaceOnUse" color-interpolation-filters="sRGB">
<feFlood flood-opacity="0" result="BackgroundImageFix"/>
<feColorMatrix in="SourceAlpha" type="matrix" values="0 0 0 0 0 0 0 0 0 0 0 0 0 0 0 0 0 0 127 0" result="hardAlpha"/>
<feOffset dy="4"/>
<feGaussianBlur stdDeviation="2"/>
<feComposite in2="hardAlpha" operator="out"/>
<feColorMatrix type="matrix" values="0 0 0 0 0 0 0 0 0 0 0 0 0 0 0 0 0 0 0.25 0"/>
<feBlend mode="normal" in2="BackgroundImageFix" result="effect1_dropShadow_3128_2184"/>
<feBlend mode="normal" in="SourceGraphic" in2="effect1_dropShadow_3128_2184" result="shape"/>
</filter>
<linearGradient id="paint0_linear_3128_2184" x1="-128.864" y1="4.21488" x2="1002.23" y2="4.21488" gradientUnits="userSpaceOnUse">
<stop stop-color="#106DF8"/>
<stop offset="1" stop-color="#053781"/>
</linearGradient>
</defs>
</svg>
