<svg width="30" height="30" viewBox="0 0 30 30" fill="none" xmlns="http://www.w3.org/2000/svg">
<path d="M20.4568 8.01917C18.0943 8.01917 17.0959 9.14651 15.4506 9.14651C13.7637 9.14651 12.4769 8.02737 10.4297 8.02737C8.42578 8.02737 6.28886 9.25081 4.93183 11.335C3.02636 14.274 3.3498 19.8094 6.43593 24.525C7.53984 26.2131 9.01406 28.1063 10.9476 28.1268H10.9828C12.6633 28.1268 13.1625 27.0264 15.4752 27.0135H15.5103C17.7885 27.0135 18.2455 28.1203 19.9189 28.1203H19.9541C21.8877 28.0998 23.441 26.0022 24.5449 24.3205C25.3394 23.1112 25.6348 22.5041 26.2441 21.136C21.7799 19.4414 21.0627 13.1127 25.4777 10.6864C24.1301 8.99885 22.2363 8.02151 20.451 8.02151L20.4568 8.01917Z" fill="#4F7AF7"/>
<path d="M19.9365 1.875C18.5303 1.97051 16.8897 2.86582 15.9287 4.03477C15.0568 5.09414 14.3396 6.66563 14.6209 8.18965H14.7334C16.2311 8.18965 17.7639 7.28789 18.6592 6.13242C19.5217 5.03262 20.1756 3.47402 19.9365 1.875Z" fill="#4F7AF7"/>
</svg>
