<svg width="750" height="750" viewBox="0 0 750 750" fill="none" xmlns="http://www.w3.org/2000/svg">
<path d="M0 305.28C0 199.561 0 146.702 20.2474 106.18C38.8317 68.9871 68.9871 38.8317 106.18 20.2474C146.702 0 199.561 0 305.28 0H444.72C550.439 0 603.298 0 643.82 20.2474C681.013 38.8317 711.168 68.9871 729.753 106.18C750 146.702 750 199.561 750 305.28V444.72C750 550.439 750 603.298 729.753 643.82C711.168 681.013 681.013 711.168 643.82 729.753C603.298 750 550.439 750 444.72 750H305.28C199.561 750 146.702 750 106.18 729.753C68.9871 711.168 38.8317 681.013 20.2474 643.82C0 603.298 0 550.439 0 444.72V305.28Z" fill="url(#paint0_linear_129_37)"/>
<g filter="url(#filter0_di_129_37)">
<g clip-path="url(#clip0_129_37)">
<mask id="mask0_129_37" style="mask-type:luminance" maskUnits="userSpaceOnUse" x="136" y="182" width="440" height="386">
<path d="M575.145 182H136V568H575.145V182Z" fill="white"/>
</mask>
<g mask="url(#mask0_129_37)">
<mask id="mask1_129_37" style="mask-type:luminance" maskUnits="userSpaceOnUse" x="-3703" y="182" width="11358" height="916">
<path d="M7654.46 182H-3702.73V1097.8H7654.46V182Z" fill="white"/>
</mask>
<g mask="url(#mask1_129_37)">
<path d="M753.68 990.859V677.217H797.367V814.133L789.72 819.204C792.547 809.314 798.074 800.207 806.302 791.882C814.479 783.556 824.221 776.769 835.527 771.522C846.834 766.325 858.418 763.726 870.281 763.726C887.241 763.726 901.377 767.031 912.681 773.641C923.985 780.301 932.465 790.418 938.121 803.991C943.777 817.564 946.601 834.644 946.601 855.231V990.859H902.989V858.258C902.989 845.543 901.271 834.997 897.841 826.621C894.456 818.296 889.234 812.241 882.168 808.457C875.101 804.622 866.343 802.982 855.895 803.537C847.415 803.537 839.641 804.874 832.575 807.549C825.508 810.273 819.35 814.032 814.1 818.826C808.901 823.619 804.812 829.195 801.834 835.552C798.857 841.91 797.367 848.772 797.367 856.139V990.859H764.734H753.68ZM1097.12 995.022C1074.26 995.022 1053.99 990.155 1036.32 980.414C1018.66 970.674 1004.8 957.33 994.755 940.376C984.708 923.424 979.688 903.922 979.688 881.872C979.688 864.363 982.512 848.393 988.168 833.963C993.824 819.583 1001.67 807.094 1011.72 796.498C1021.76 785.902 1033.77 777.702 1047.76 771.9C1061.74 766.097 1076.93 763.196 1093.34 763.196C1107.77 763.196 1121.2 765.946 1133.62 771.446C1146.03 776.996 1156.84 784.565 1166.02 794.152C1175.21 803.739 1182.28 815.117 1187.22 828.287C1192.17 841.405 1194.51 855.735 1194.26 871.276L1193.81 889.971H1011.94L1002.18 855.155H1156.1L1149.74 862.421V852.203C1148.89 842.868 1145.78 834.543 1140.43 827.227C1135.03 819.86 1128.24 814.058 1120.06 809.819C1111.83 805.581 1102.93 803.462 1093.34 803.462C1078.09 803.462 1065.22 806.363 1054.72 812.165C1044.27 817.968 1036.38 826.444 1031.02 837.596C1025.62 848.747 1022.92 862.522 1022.92 878.921C1022.92 894.461 1026.18 907.959 1032.69 919.413C1039.2 930.866 1048.38 939.695 1060.25 945.902C1072.11 952.108 1085.82 955.211 1101.36 955.211C1112.42 955.211 1122.66 953.372 1132.1 949.686C1141.59 946.008 1151.84 939.37 1162.84 929.782L1184.95 960.736C1178.14 967.502 1169.86 973.429 1160.12 978.522C1150.37 983.616 1140.05 987.658 1129.15 990.632C1118.3 993.561 1107.62 995.022 1097.12 995.022ZM1400.28 990.784H1360.91V845.846C1360.91 833.433 1356.44 823.341 1347.51 815.571C1338.63 807.801 1327.39 803.916 1313.82 803.916C1301.4 803.916 1290.17 806.463 1280.12 811.56C1270.08 816.605 1260.97 824.376 1252.79 834.871L1224.32 806.413C1237.65 792.033 1252.01 781.31 1267.4 774.247C1282.8 767.182 1299.41 763.651 1317.22 763.651C1334.18 763.651 1348.87 766.476 1361.29 772.127C1373.76 777.778 1383.38 786.028 1390.14 796.877C1396.9 807.776 1400.28 820.995 1400.28 836.536V990.784ZM1294.28 995.022C1279.9 995.022 1267.05 992.199 1255.74 986.545C1244.44 980.899 1235.45 973.073 1228.79 963.082C1222.18 953.039 1218.87 941.232 1218.87 927.663C1218.87 915.805 1220.99 905.36 1225.23 896.329C1229.47 887.246 1235.76 879.753 1244.08 873.85C1252.41 867.896 1262.86 863.379 1275.43 860.302C1288 857.173 1302.48 855.609 1318.89 855.609H1380.82L1376.96 890.349H1313.36C1304.88 890.349 1297.33 891.131 1290.72 892.696C1284.06 894.259 1278.41 896.656 1273.76 899.886C1269.07 903.165 1265.61 906.975 1263.39 911.314C1261.12 915.704 1259.98 920.876 1259.98 926.83C1259.98 933.036 1261.52 938.46 1264.6 943.101C1267.73 947.794 1271.97 951.404 1277.32 953.924C1282.72 956.498 1288.96 957.784 1296.02 957.784C1306.17 957.784 1315.84 956.021 1325.02 952.486C1334.21 948.959 1342.41 944.062 1349.63 937.805C1356.85 931.598 1362.43 924.685 1366.36 917.067L1376.58 945.447C1370.63 955.34 1363.28 963.968 1354.55 971.332C1345.77 978.651 1336.28 984.426 1326.08 988.664C1315.94 992.903 1305.34 995.022 1294.28 995.022ZM1547.02 990.859H1515.67L1421.48 768.343H1468.58L1536.42 934.929L1528.39 938.789L1600.85 768.343H1645.83L1547.02 990.859ZM1776.81 995.022C1753.95 995.022 1733.68 990.155 1716.01 980.414C1698.35 970.674 1684.49 957.33 1674.45 940.376C1664.4 923.424 1659.38 903.922 1659.38 881.872C1659.38 864.363 1662.2 848.393 1667.86 833.963C1673.51 819.583 1681.36 807.094 1691.41 796.498C1701.45 785.902 1713.46 777.702 1727.45 771.9C1741.43 766.097 1756.62 763.196 1773.03 763.196C1787.41 763.196 1800.84 765.946 1813.31 771.446C1825.72 776.996 1836.53 784.565 1845.71 794.152C1854.9 803.739 1861.97 815.117 1866.91 828.287C1871.86 841.405 1874.2 855.735 1873.95 871.276L1873.5 889.971H1691.63L1681.87 855.155H1835.79L1829.43 862.421V852.203C1828.58 842.868 1825.44 834.543 1820.04 827.227C1814.69 819.86 1807.93 814.058 1799.75 809.819C1791.52 805.581 1782.62 803.462 1773.03 803.462C1757.73 803.462 1744.86 806.363 1734.41 812.165C1723.96 817.968 1716.07 826.444 1710.71 837.596C1705.31 848.747 1702.61 862.522 1702.61 878.921C1702.61 894.461 1705.87 907.959 1712.38 919.413C1718.89 930.866 1728.07 939.695 1739.94 945.902C1751.8 952.108 1765.51 955.211 1781.05 955.211C1792.11 955.211 1802.35 953.372 1811.79 949.686C1821.28 946.008 1831.53 939.37 1842.53 929.782L1864.57 960.736C1857.8 967.502 1849.55 973.429 1839.81 978.522C1830.06 983.616 1819.74 987.658 1808.84 990.632C1797.94 993.561 1787.26 995.022 1776.81 995.022ZM1908.71 990.784V768.267H1952.39V814.058L1944.75 819.129C1947.57 809.239 1953.08 800.131 1961.25 791.806C1969.48 783.48 1979.25 776.694 1990.55 771.446C2001.86 766.249 2013.44 763.651 2025.31 763.651C2042.27 763.651 2056.4 766.955 2067.71 773.565C2079.01 780.226 2087.49 790.342 2093.15 803.916C2098.8 817.488 2101.63 834.569 2101.63 855.155V990.784H2057.94V858.183C2057.94 845.467 2056.25 834.921 2052.87 826.546C2049.48 818.22 2044.26 812.165 2037.19 808.381C2030.13 804.546 2021.35 802.906 2010.85 803.462C2002.37 803.462 1994.59 804.798 1987.53 807.473C1980.46 810.198 1974.33 813.956 1969.13 818.75C1963.88 823.543 1959.76 829.119 1956.79 835.477C1953.86 841.834 1952.39 848.696 1952.39 856.064V990.784H1919.69H1908.71ZM2247.91 1088.27C2232.06 1088.27 2216.28 1085.8 2200.59 1080.85C2184.94 1075.91 2172.29 1069.5 2162.65 1061.63L2178.78 1027.72C2187.26 1034.17 2197.79 1039.4 2210.35 1043.39C2222.92 1047.32 2235.44 1049.29 2247.91 1049.29C2263.45 1049.29 2276.45 1046.75 2286.9 1041.64C2297.35 1036.6 2305.28 1029.13 2310.68 1019.24C2316.03 1009.36 2318.7 997.043 2318.7 982.307V939.544L2323.4 942.496C2321.98 951.275 2317.39 959.676 2309.62 967.699C2301.84 975.775 2292.15 982.36 2280.54 987.453C2268.93 992.502 2257.07 995.022 2244.96 995.022C2223.76 995.022 2204.88 990.027 2188.32 980.036C2171.76 970 2158.69 956.271 2149.1 938.863C2139.51 921.506 2134.72 901.677 2134.72 879.375C2134.72 857.022 2139.43 837.167 2148.87 819.81C2158.36 802.402 2171.36 788.703 2187.87 778.712C2204.43 768.671 2223.02 763.651 2243.67 763.651C2252.15 763.651 2260.35 764.71 2268.28 766.829C2276.15 768.949 2283.49 771.9 2290.31 775.685C2297.07 779.519 2303.16 783.707 2308.56 788.249C2313.91 792.739 2318.27 797.532 2321.65 802.629C2325.04 807.725 2327.16 812.518 2328.01 817.009L2318.7 820.415V768.267H2362.39V977.236C2362.39 995.052 2359.76 1010.82 2354.51 1024.54C2349.31 1038.22 2341.77 1049.8 2331.88 1059.28C2321.98 1068.72 2309.97 1075.91 2295.84 1080.85C2281.7 1085.8 2265.72 1088.27 2247.91 1088.27ZM2249.57 954.757C2263.45 954.757 2275.75 951.533 2286.45 945.069C2297.2 938.562 2305.55 929.656 2311.51 918.353C2317.41 907.05 2320.37 894.058 2320.37 879.375C2320.37 864.641 2317.34 851.572 2311.28 840.169C2305.22 828.715 2296.9 819.734 2286.3 813.225C2275.7 806.716 2263.45 803.462 2249.57 803.462C2236 803.462 2223.91 806.792 2213.31 813.452C2202.71 820.062 2194.38 829.093 2188.32 840.548C2182.26 852.001 2179.24 864.944 2179.24 879.375C2179.24 893.755 2182.26 906.672 2188.32 918.126C2194.38 929.58 2202.71 938.562 2213.31 945.069C2223.91 951.533 2236 954.757 2249.57 954.757ZM2582.04 990.784H2542.59V845.846C2542.59 833.433 2538.12 823.341 2529.19 815.571C2520.31 807.801 2509.07 803.916 2495.5 803.916C2483.08 803.916 2471.85 806.463 2461.8 811.56C2451.75 816.605 2442.65 824.376 2434.47 834.871L2406.08 806.413C2419.35 792.033 2433.69 781.31 2449.08 774.247C2464.47 767.182 2481.09 763.651 2498.9 763.651C2515.86 763.651 2530.55 766.476 2542.97 772.127C2555.44 777.778 2565.05 786.028 2571.82 796.877C2578.63 807.776 2582.04 820.995 2582.04 836.536V990.784ZM2476.04 995.022C2461.6 995.022 2448.73 992.199 2437.42 986.545C2426.12 980.899 2417.13 973.073 2410.47 963.082C2403.86 953.039 2400.55 941.232 2400.55 927.663C2400.55 915.805 2402.67 905.36 2406.91 896.329C2411.15 887.246 2417.43 879.753 2425.76 873.85C2434.09 867.896 2444.54 863.379 2457.11 860.302C2469.73 857.173 2484.21 855.609 2500.57 855.609H2562.5L2558.72 890.349H2495.12C2486.64 890.349 2479.07 891.131 2472.4 892.696C2465.74 894.259 2460.08 896.656 2455.44 899.886C2450.8 903.165 2447.34 906.975 2445.07 911.314C2442.8 915.704 2441.66 920.876 2441.66 926.83C2441.66 933.036 2443.23 938.46 2446.36 943.101C2449.44 947.794 2453.68 951.404 2459.08 953.924C2464.43 956.498 2470.64 957.784 2477.7 957.784C2487.9 957.784 2497.59 956.021 2506.78 952.486C2515.96 948.959 2524.14 944.062 2531.31 937.805C2538.52 931.598 2544.13 924.685 2548.12 917.067L2558.26 945.447C2552.3 955.34 2544.96 963.968 2536.23 971.332C2527.45 978.651 2517.98 984.426 2507.84 988.664C2497.64 992.903 2487.04 995.022 2476.04 995.022ZM2695.61 990.859H2652V711.578H2695.61V990.859ZM2747.4 810.727H2605.74V768.343H2747.4V810.727ZM2878.31 995.022C2855.39 995.022 2835.1 990.155 2817.43 980.414C2799.77 970.674 2785.94 957.33 2775.94 940.376C2765.9 923.424 2760.88 903.922 2760.88 881.872C2760.88 864.363 2763.7 848.393 2769.36 833.963C2775.01 819.583 2782.86 807.094 2792.9 796.498C2802.9 785.902 2814.91 777.702 2828.94 771.9C2842.93 766.097 2858.12 763.196 2874.52 763.196C2888.91 763.196 2902.33 765.946 2914.8 771.446C2927.22 776.996 2938.02 784.565 2947.21 794.152C2956.39 803.739 2963.46 815.117 2968.41 828.287C2973.35 841.405 2975.68 855.735 2975.37 871.276L2975 889.971H2793.05L2783.36 855.155H2937.21L2930.85 862.421V852.203C2930.04 842.868 2926.94 834.543 2921.54 827.227C2916.19 819.86 2909.4 814.058 2901.17 809.819C2893 805.581 2884.12 803.462 2874.52 803.462C2859.23 803.462 2846.36 806.363 2835.91 812.165C2825.46 817.968 2817.53 826.444 2812.13 837.596C2806.78 848.747 2804.11 862.522 2804.11 878.921C2804.11 894.461 2807.36 907.959 2813.88 919.413C2820.39 930.866 2829.57 939.695 2841.44 945.902C2853.3 952.108 2867 955.211 2882.55 955.211C2893.55 955.211 2903.8 953.372 2913.29 949.686C2922.78 946.008 2933.03 939.37 2944.03 929.782L2966.06 960.736C2959.3 967.502 2951.05 973.429 2941.3 978.522C2931.51 983.616 2921.19 987.658 2910.34 990.632C2899.43 993.561 2888.76 995.022 2878.31 995.022ZM3220.54 990.859H3189.19L3095.08 768.343H3142.1L3209.94 934.929L3201.91 938.789L3274.37 768.343H3319.35L3220.54 990.859ZM3390.59 1084.1H3346.45V768.343H3390.59V819.204L3383.78 815.42C3385.5 806.943 3390.31 798.819 3398.24 791.049C3406.12 783.278 3415.78 776.921 3427.24 771.976C3438.7 767.031 3450.51 764.559 3462.67 764.559C3482.72 764.559 3500.51 769.503 3516.05 779.393C3531.6 789.282 3543.92 802.856 3553 820.113C3562.03 837.318 3566.55 857.097 3566.55 879.451C3566.55 901.45 3562.09 921.154 3553.15 938.561C3544.27 955.922 3532.05 969.622 3516.51 979.658C3500.96 989.701 3483.44 994.719 3463.96 994.719C3450.94 994.719 3438.35 992.093 3426.18 986.848C3414.01 981.648 3403.69 974.942 3395.21 966.715C3386.73 958.541 3381.51 950.064 3379.54 941.285L3390.59 935.383V1084.1ZM3456.69 954.454C3469.72 954.454 3481.32 951.2 3491.52 944.691C3501.67 938.183 3509.72 929.277 3515.67 917.975C3521.58 906.672 3524.53 893.831 3524.53 879.451C3524.53 865.019 3521.66 852.228 3515.9 841.078C3510.09 829.926 3502.1 821.096 3491.9 814.587C3481.75 808.078 3470.02 804.824 3456.69 804.824C3443.42 804.824 3431.71 808.003 3421.56 814.36C3411.36 820.718 3403.29 829.548 3397.33 840.851C3391.43 852.153 3388.47 865.019 3388.47 879.451C3388.47 893.831 3391.43 906.672 3397.33 917.975C3403.29 929.277 3411.36 938.183 3421.56 944.691C3431.71 951.2 3443.42 954.454 3456.69 954.454ZM3601.31 990.784V768.267H3645V814.058L3637.35 819.129C3640.17 809.239 3645.68 800.131 3653.85 791.806C3662.08 783.48 3671.85 776.694 3683.16 771.446C3694.46 766.249 3706.04 763.651 3717.91 763.651C3734.87 763.651 3749 766.955 3760.31 773.565C3771.61 780.226 3780.09 790.342 3785.75 803.916C3791.4 817.488 3794.23 834.569 3794.23 855.155V990.784H3750.54V858.183C3750.54 845.467 3748.85 834.921 3745.47 826.546C3742.08 818.22 3736.86 812.165 3729.8 808.381C3722.73 804.546 3713.97 802.906 3703.52 803.462C3695.04 803.462 3687.27 804.798 3680.2 807.473C3673.14 810.198 3666.97 813.956 3661.73 818.75C3656.48 823.543 3652.39 829.119 3649.46 835.477C3646.49 841.834 3645 848.696 3645 856.064V990.784H3612.36H3601.31ZM353.324 327.902L269.848 236.109C274.44 229.098 276.317 220.654 275.126 212.359C273.935 204.064 269.758 196.488 263.379 191.051C257 185.614 248.856 182.689 240.474 182.825C232.092 182.961 224.048 186.148 217.848 191.789C211.649 197.429 207.72 205.137 206.798 213.466C205.877 221.795 208.026 230.174 212.843 237.033C217.66 243.891 224.814 248.758 232.964 250.722C241.113 252.685 249.7 251.609 257.113 247.697L340.588 339.444C344.228 334.965 348.521 331.058 353.324 327.857M327.997 370.96L210.178 379.058C207.528 371.123 202.074 364.425 194.839 360.221C187.603 356.017 179.082 354.595 170.873 356.221C162.663 357.847 155.329 362.41 150.244 369.054C145.159 375.699 142.672 383.969 143.25 392.315C143.827 400.661 147.43 408.51 153.382 414.391C159.334 420.272 167.227 423.781 175.582 424.262C183.938 424.743 192.181 422.161 198.769 417.001C205.356 411.84 209.835 404.456 211.366 396.232L329.148 388.171C327.909 382.538 327.523 376.752 328.005 371.005M325.612 485.11C315.933 483.015 305.82 484.569 297.216 489.473C288.613 494.377 282.125 502.286 279 511.68C275.874 521.075 276.33 531.291 280.281 540.37C284.233 549.449 291.399 556.747 300.406 560.865C309.412 564.983 319.623 565.63 329.078 562.682C338.532 559.732 346.563 553.396 351.628 544.888C356.694 536.381 358.437 526.303 356.522 516.589C354.608 506.877 349.17 498.213 341.255 492.262L369.398 430.707C363.836 429.124 358.545 426.713 353.702 423.554L325.612 485.11ZM494.902 307.777C503.17 315.651 514.079 320.16 525.496 320.423C536.912 320.685 548.016 316.683 556.638 309.198C565.26 301.712 570.779 291.282 572.119 279.946C573.457 268.609 570.519 257.181 563.877 247.894C557.236 238.608 547.369 232.131 536.205 229.73C525.041 227.328 513.382 229.174 503.507 234.907C493.633 240.64 486.251 249.848 482.806 260.732C479.361 271.615 480.099 283.392 484.878 293.76L426.207 335.675C430.244 339.807 433.583 344.464 436.224 349.647L494.902 307.777ZM526.521 455.547C517.73 455.533 509.18 458.417 502.194 463.751L433.892 405.67C430.869 410.592 427.122 415.032 422.777 418.839L491.132 476.86C487.011 484.613 485.546 493.504 486.961 502.168C488.377 510.833 492.595 518.796 498.968 524.836C505.342 530.877 513.521 534.662 522.252 535.614C530.983 536.564 539.786 534.628 547.312 530.102C554.837 525.576 560.672 518.708 563.921 510.55C567.17 502.394 567.654 493.397 565.3 484.938C562.947 476.479 557.885 469.025 550.889 463.717C543.893 458.409 535.349 455.539 526.566 455.547M412.139 274.309C419.354 273.379 425.944 269.738 430.569 264.126C435.195 258.514 437.509 251.351 437.042 244.094C436.574 236.838 433.36 230.031 428.052 225.059C422.744 220.086 415.741 217.32 408.467 217.324C402.051 217.287 395.809 219.409 390.746 223.349C385.683 227.289 382.094 232.818 380.557 239.045C379.02 245.272 379.624 251.835 382.272 257.677C384.921 263.519 389.458 268.301 395.156 271.251L386.668 318.365C392.614 318.557 398.258 319.573 403.598 321.416L412.139 274.309Z" fill="url(#paint1_linear_129_37)" style="mix-blend-mode:luminosity"/>
<path d="M433.846 405.713C440.601 394.877 443.52 382.088 442.136 369.396C440.752 356.704 435.146 344.844 426.214 335.718C415.805 324.993 401.612 318.764 386.668 318.363L385.094 318.265C376.562 318.263 368.138 320.168 360.438 323.84C352.738 327.512 345.956 332.858 340.589 339.487C335.125 346.201 331.256 354.066 329.273 362.491C327.29 370.914 327.245 379.679 329.14 388.123C331.65 399.222 337.406 409.323 345.675 417.143C353.944 424.963 364.353 430.148 375.578 432.038C386.802 433.929 398.336 432.44 408.711 427.76C419.087 423.08 427.837 415.422 433.846 405.758" fill="url(#paint2_linear_129_37)" style="mix-blend-mode:luminosity"/>
</g>
</g>
</g>
</g>
<defs>
<filter id="filter0_di_129_37" x="106" y="152" width="539.145" height="486" filterUnits="userSpaceOnUse" color-interpolation-filters="sRGB">
<feFlood flood-opacity="0" result="BackgroundImageFix"/>
<feColorMatrix in="SourceAlpha" type="matrix" values="0 0 0 0 0 0 0 0 0 0 0 0 0 0 0 0 0 0 127 0" result="hardAlpha"/>
<feOffset dx="20" dy="20"/>
<feGaussianBlur stdDeviation="25"/>
<feColorMatrix type="matrix" values="0 0 0 0 0 0 0 0 0 0 0 0 0 0 0 0 0 0 0.37 0"/>
<feBlend mode="normal" in2="BackgroundImageFix" result="effect1_dropShadow_129_37"/>
<feBlend mode="normal" in="SourceGraphic" in2="effect1_dropShadow_129_37" result="shape"/>
<feColorMatrix in="SourceAlpha" type="matrix" values="0 0 0 0 0 0 0 0 0 0 0 0 0 0 0 0 0 0 127 0" result="hardAlpha"/>
<feOffset/>
<feGaussianBlur stdDeviation="7.5"/>
<feComposite in2="hardAlpha" operator="arithmetic" k2="-1" k3="1"/>
<feColorMatrix type="matrix" values="0 0 0 0 1 0 0 0 0 1 0 0 0 0 1 0 0 0 0.92 0"/>
<feBlend mode="normal" in2="shape" result="effect2_innerShadow_129_37"/>
</filter>
<linearGradient id="paint0_linear_129_37" x1="57.5" y1="57" x2="653.5" y2="709" gradientUnits="userSpaceOnUse">
<stop stop-color="#2F2F38"/>
<stop offset="1" stop-color="#1F1B19"/>
</linearGradient>
<linearGradient id="paint1_linear_129_37" x1="1968.7" y1="182.82" x2="1968.7" y2="1088.27" gradientUnits="userSpaceOnUse">
<stop stop-color="white"/>
<stop offset="1" stop-color="#C2C2C2"/>
</linearGradient>
<linearGradient id="paint2_linear_129_37" x1="385.112" y1="318.265" x2="385.112" y2="432.835" gradientUnits="userSpaceOnUse">
<stop stop-color="white"/>
<stop offset="1" stop-color="#C2C2C2"/>
</linearGradient>
<clipPath id="clip0_129_37">
<rect width="439.145" height="386" fill="white" transform="translate(136 182)"/>
</clipPath>
</defs>
</svg>
